M48
METRIC,LZ,000.000
;FILE_FORMAT=3:3
;TYPE=PLATED
;Layer: PTH_Through
;EasyEDA v6.5.46, 2025-01-09 23:37:49
;bbed458f42434569bcf49ab9fb7bc22b,fff7059aa45948518e6d809cb9695f37,10
;Gerber Generator version 0.2
;Holesize 1 = 0.306 mm
T01C0.306
;Holesize 2 = 0.889 mm
T02C0.889
;Holesize 3 = 0.914 mm
T03C0.914
;Holesize 4 = 1.016 mm
T04C1.016
%
G05
G90
T01
X016983Y-081743
X014484Y-055842
X031353Y-079623
X095658Y-086614
X087669Y-091296
X010961Y-079623
X094418Y-085374
X012227Y-084328
X080181Y-061771
X014014Y-086099
X015520Y-067284
X098249Y-089147
X083462Y-089147
T02
X059563Y-088011
X062103Y-088011
X064643Y-088011
X067183Y-088011
X069723Y-088011
X025908Y-059436
X025908Y-061976
X023368Y-059436
X023368Y-061976
X020828Y-059436
X020828Y-061976
X018288Y-059436
X018288Y-061976
X015748Y-059436
X015748Y-061976
X013208Y-059436
X013208Y-061976
X030480Y-084328
X030480Y-086868
X027940Y-084328
X027940Y-086868
X025400Y-084328
X025400Y-086868
X022860Y-084328
X022860Y-086868
X020320Y-084328
X020320Y-086868
X017780Y-084328
X017780Y-086868
X076708Y-057150
X079248Y-057150
X081788Y-057150
X084328Y-057150
X054102Y-057277
X056642Y-057277
X059182Y-057277
X061722Y-057277
X085344Y-086614
X082804Y-086614
X085344Y-084074
X082804Y-084074
X085344Y-081534
X082804Y-081534
X085344Y-078994
X082804Y-078994
X085344Y-076454
X082804Y-076454
X085344Y-073914
X082804Y-073914
X085344Y-071374
X082804Y-071374
X085344Y-068834
X082804Y-068834
X085344Y-066294
X082804Y-066294
X085344Y-063754
X082804Y-063754
T03
X049276Y-073533
X049276Y-070993
X049276Y-076073
X049276Y-065913
X051816Y-065913
X054356Y-065913
X056896Y-065913
X049276Y-081153
X051816Y-081153
X054356Y-081153
X056896Y-081153
T04
X083820Y-097803G85X083820Y-097798
X086360Y-097803G85X086360Y-097798
X088900Y-097803G85X088900Y-097798
X091440Y-097803G85X091440Y-097798
X093980Y-097803G85X093980Y-097798
X096520Y-097803G85X096520Y-097798
X099060Y-097803G85X099060Y-097798
X081280Y-097803G85X081280Y-097798
X078740Y-049543G85X078740Y-049538
X081280Y-049543G85X081280Y-049538
X083820Y-049543G85X083820Y-049538
X086360Y-049543G85X086360Y-049538
X088900Y-049543G85X088900Y-049538
X091440Y-049543G85X091440Y-049538
X093980Y-049543G85X093980Y-049538
X076200Y-049543G85X076200Y-049538
X060960Y-097803G85X060960Y-097798
X063500Y-097803G85X063500Y-097798
X066040Y-097803G85X066040Y-097798
X068580Y-097803G85X068580Y-097798
X071120Y-097803G85X071120Y-097798
X073660Y-097803G85X073660Y-097798
X076200Y-097803G85X076200Y-097798
X058420Y-097803G85X058420Y-097798
X055880Y-049543G85X055880Y-049538
X058420Y-049543G85X058420Y-049538
X060960Y-049543G85X060960Y-049538
X063500Y-049543G85X063500Y-049538
X066040Y-049543G85X066040Y-049538
X068580Y-049543G85X068580Y-049538
X071120Y-049543G85X071120Y-049538
X053340Y-049543G85X053340Y-049538
X034036Y-049543G85X034036Y-049538
X036576Y-049543G85X036576Y-049538
X039116Y-049543G85X039116Y-049538
X041656Y-049543G85X041656Y-049538
X044196Y-049543G85X044196Y-049538
X046736Y-049543G85X046736Y-049538
X049276Y-049543G85X049276Y-049538
X031496Y-049543G85X031496Y-049538
X104140Y-069863G85X104140Y-069858
X101600Y-069863G85X101600Y-069858
X104140Y-067323G85X104140Y-067318
X101600Y-067323G85X101600Y-067318
X104140Y-064783G85X104140Y-064778
X101600Y-064783G85X101600Y-064778
X104140Y-062243G85X104140Y-062238
X101600Y-062243G85X101600Y-062238
X104140Y-059703G85X104140Y-059698
X101600Y-059703G85X101600Y-059698
X104140Y-057163G85X104140Y-057158
X101600Y-057163G85X101600Y-057158
X104140Y-054623G85X104140Y-054618
X101600Y-054623G85X101600Y-054618
X104140Y-052083G85X104140Y-052078
X101600Y-052083G85X101600Y-052078
X104140Y-090183G85X104140Y-090178
X101600Y-090183G85X101600Y-090178
X104140Y-087643G85X104140Y-087638
X101600Y-087643G85X101600Y-087638
X104140Y-085103G85X104140Y-085098
X101600Y-085103G85X101600Y-085098
X101600Y-082563G85X101600Y-082558
X104140Y-080023G85X104140Y-080018
X101600Y-080023G85X101600Y-080018
X104140Y-077483G85X104140Y-077478
X101600Y-077483G85X101600Y-077478
X104140Y-074943G85X104140Y-074938
X101600Y-074943G85X101600Y-074938
X104140Y-072403G85X104140Y-072398
X101600Y-072403G85X101600Y-072398
X101600Y-092723G85X101600Y-092718
X104140Y-092723G85X104140Y-092718
X101600Y-049543G85X101600Y-049538
X104140Y-049543G85X104140Y-049538
X040640Y-097803G85X040640Y-097798
X043180Y-097803G85X043180Y-097798
X045720Y-097803G85X045720Y-097798
X048260Y-097803G85X048260Y-097798
X050800Y-097803G85X050800Y-097798
X053340Y-097800
X028956Y-049543G85X028956Y-049538
X026416Y-049543G85X026416Y-049538
X038100Y-097803G85X038100Y-097798
X035560Y-097803G85X035560Y-097798
X071120Y-069860
X073660Y-069860
X071120Y-072400
X073660Y-072400
X071120Y-074940
X073660Y-074940
X104140Y-082563G85X104140Y-082558
M30
