G04 Layer: TopSilkscreenLayer*
G04 EasyEDA v6.5.46, 2025-01-09 23:37:49*
G04 bbed458f42434569bcf49ab9fb7bc22b,fff7059aa45948518e6d809cb9695f37,10*
G04 Gerber Generator version 0.2*
G04 Scale: 100 percent, Rotated: No, Reflected: No *
G04 Dimensions in millimeters *
G04 leading zeros omitted , absolute positions ,4 integer and 5 decimal *
%FSLAX45Y45*%
%MOMM*%

%ADD10C,0.2032*%
%ADD11C,0.1524*%
%ADD12C,0.1333*%
%ADD13C,0.2030*%
%ADD14C,0.2540*%
%ADD15C,0.3048*%
%ADD16C,0.0140*%

%LPD*%
D10*
X7907527Y-6515100D02*
G01*
X7983981Y-6485889D01*
X7907527Y-6456934D02*
G01*
X7983981Y-6485889D01*
X7907527Y-6389370D02*
G01*
X7983981Y-6389370D01*
X7943850Y-6389370D02*
G01*
X7936738Y-6396481D01*
X7932927Y-6403847D01*
X7932927Y-6414770D01*
X7936738Y-6422136D01*
X7943850Y-6429247D01*
X7954772Y-6432804D01*
X7962138Y-6432804D01*
X7973059Y-6429247D01*
X7980425Y-6422136D01*
X7983981Y-6414770D01*
X7983981Y-6403847D01*
X7980425Y-6396481D01*
X7973059Y-6389370D01*
X7907527Y-6321552D02*
G01*
X7983981Y-6321552D01*
X7943850Y-6321552D02*
G01*
X7936738Y-6328918D01*
X7932927Y-6336284D01*
X7932927Y-6347205D01*
X7936738Y-6354318D01*
X7943850Y-6361684D01*
X7954772Y-6365239D01*
X7962138Y-6365239D01*
X7973059Y-6361684D01*
X7980425Y-6354318D01*
X7983981Y-6347205D01*
X7983981Y-6336284D01*
X7980425Y-6328918D01*
X7973059Y-6321552D01*
X7932927Y-6877812D02*
G01*
X7932927Y-6914134D01*
X7965693Y-6917944D01*
X7962138Y-6914134D01*
X7958327Y-6903212D01*
X7958327Y-6892289D01*
X7962138Y-6881621D01*
X7969250Y-6874255D01*
X7980172Y-6870700D01*
X7987538Y-6870700D01*
X7998459Y-6874255D01*
X8005825Y-6881621D01*
X8009381Y-6892289D01*
X8009381Y-6903212D01*
X8005825Y-6914134D01*
X8002015Y-6917944D01*
X7994904Y-6921500D01*
X7932927Y-6846570D02*
G01*
X8009381Y-6817613D01*
X7932927Y-6788404D02*
G01*
X8009381Y-6817613D01*
X7945627Y-7137400D02*
G01*
X8022081Y-7137400D01*
X7945627Y-7137400D02*
G01*
X7945627Y-7104634D01*
X7949184Y-7093712D01*
X7952993Y-7090155D01*
X7960106Y-7086600D01*
X7967472Y-7086600D01*
X7974838Y-7090155D01*
X7978393Y-7093712D01*
X7981950Y-7104634D01*
X7981950Y-7137400D01*
X7981950Y-7112000D02*
G01*
X8022081Y-7086600D01*
X7971027Y-7062470D02*
G01*
X8022081Y-7022592D01*
X7971027Y-7022592D02*
G01*
X8022081Y-7062470D01*
X7956550Y-7391400D02*
G01*
X7949184Y-7398512D01*
X7945627Y-7409434D01*
X7945627Y-7423912D01*
X7949184Y-7434834D01*
X7956550Y-7442200D01*
X7963915Y-7442200D01*
X7971027Y-7438644D01*
X7974838Y-7434834D01*
X7978393Y-7427721D01*
X7985759Y-7405878D01*
X7989315Y-7398512D01*
X7992872Y-7394955D01*
X8000238Y-7391400D01*
X8011159Y-7391400D01*
X8018525Y-7398512D01*
X8022081Y-7409434D01*
X8022081Y-7423912D01*
X8018525Y-7434834D01*
X8011159Y-7442200D01*
X7963915Y-7312660D02*
G01*
X7956550Y-7316470D01*
X7949184Y-7323581D01*
X7945627Y-7330947D01*
X7945627Y-7345426D01*
X7949184Y-7352792D01*
X7956550Y-7359904D01*
X7963915Y-7363713D01*
X7974838Y-7367270D01*
X7992872Y-7367270D01*
X8003793Y-7363713D01*
X8011159Y-7359904D01*
X8018525Y-7352792D01*
X8022081Y-7345426D01*
X8022081Y-7330947D01*
X8018525Y-7323581D01*
X8011159Y-7316470D01*
X8003793Y-7312660D01*
X7945627Y-7288784D02*
G01*
X8022081Y-7288784D01*
X8022081Y-7288784D02*
G01*
X8022081Y-7245095D01*
X7945627Y-7666989D02*
G01*
X8022081Y-7696200D01*
X7945627Y-7666989D02*
G01*
X8022081Y-7638034D01*
X7996681Y-7685278D02*
G01*
X7996681Y-7648955D01*
X7945627Y-7592313D02*
G01*
X7949184Y-7603236D01*
X7960106Y-7610347D01*
X7978393Y-7613904D01*
X7989315Y-7613904D01*
X8007604Y-7610347D01*
X8018525Y-7603236D01*
X8022081Y-7592313D01*
X8022081Y-7584947D01*
X8018525Y-7574026D01*
X8007604Y-7566660D01*
X7989315Y-7563104D01*
X7978393Y-7563104D01*
X7960106Y-7566660D01*
X7949184Y-7574026D01*
X7945627Y-7584947D01*
X7945627Y-7592313D01*
X7945734Y-7895696D02*
G01*
X8021934Y-7924906D01*
X7945734Y-7895696D02*
G01*
X8021934Y-7866740D01*
X7996534Y-7913984D02*
G01*
X7996534Y-7877408D01*
X7963768Y-7839054D02*
G01*
X7960212Y-7839054D01*
X7952846Y-7835244D01*
X7949290Y-7831688D01*
X7945734Y-7824322D01*
X7945734Y-7809844D01*
X7949290Y-7802732D01*
X7952846Y-7798922D01*
X7960212Y-7795366D01*
X7967578Y-7795366D01*
X7974690Y-7798922D01*
X7985612Y-7806288D01*
X8021934Y-7842610D01*
X8021934Y-7791810D01*
X7945627Y-8204200D02*
G01*
X8022081Y-8204200D01*
X7945627Y-8204200D02*
G01*
X7945627Y-8178800D01*
X7949184Y-8167878D01*
X7956550Y-8160512D01*
X7963915Y-8156955D01*
X7974838Y-8153400D01*
X7992872Y-8153400D01*
X8003793Y-8156955D01*
X8011159Y-8160512D01*
X8018525Y-8167878D01*
X8022081Y-8178800D01*
X8022081Y-8204200D01*
X7945627Y-8107426D02*
G01*
X7949184Y-8118347D01*
X7960106Y-8125713D01*
X7978393Y-8129270D01*
X7989315Y-8129270D01*
X8007604Y-8125713D01*
X8018525Y-8118347D01*
X8022081Y-8107426D01*
X8022081Y-8100313D01*
X8018525Y-8089392D01*
X8007604Y-8082026D01*
X7989315Y-8078470D01*
X7978393Y-8078470D01*
X7960106Y-8082026D01*
X7949184Y-8089392D01*
X7945627Y-8100313D01*
X7945627Y-8107426D01*
X7945734Y-8458306D02*
G01*
X8021934Y-8458306D01*
X7945734Y-8458306D02*
G01*
X7945734Y-8432652D01*
X7949290Y-8421730D01*
X7956656Y-8414618D01*
X7963768Y-8410808D01*
X7974690Y-8407252D01*
X7992978Y-8407252D01*
X8003900Y-8410808D01*
X8011012Y-8414618D01*
X8018378Y-8421730D01*
X8021934Y-8432652D01*
X8021934Y-8458306D01*
X7963768Y-8379566D02*
G01*
X7960212Y-8379566D01*
X7952846Y-8376010D01*
X7949290Y-8372454D01*
X7945734Y-8365088D01*
X7945734Y-8350610D01*
X7949290Y-8343244D01*
X7952846Y-8339688D01*
X7960212Y-8336132D01*
X7967578Y-8336132D01*
X7974690Y-8339688D01*
X7985612Y-8346800D01*
X8021934Y-8383376D01*
X8021934Y-8332322D01*
X7945627Y-8724900D02*
G01*
X8022081Y-8724900D01*
X7945627Y-8724900D02*
G01*
X7945627Y-8699500D01*
X7949184Y-8688578D01*
X7956550Y-8681212D01*
X7963915Y-8677655D01*
X7974838Y-8674100D01*
X7992872Y-8674100D01*
X8003793Y-8677655D01*
X8011159Y-8681212D01*
X8018525Y-8688578D01*
X8022081Y-8699500D01*
X8022081Y-8724900D01*
X7945627Y-8613647D02*
G01*
X7996681Y-8649970D01*
X7996681Y-8595360D01*
X7945627Y-8613647D02*
G01*
X8022081Y-8613647D01*
X8932672Y-8585200D02*
G01*
X8856218Y-8585200D01*
X8932672Y-8585200D02*
G01*
X8932672Y-8610600D01*
X8929115Y-8621521D01*
X8921750Y-8628887D01*
X8914384Y-8632444D01*
X8903461Y-8636000D01*
X8885427Y-8636000D01*
X8874506Y-8632444D01*
X8867140Y-8628887D01*
X8859774Y-8621521D01*
X8856218Y-8610600D01*
X8856218Y-8585200D01*
X8932672Y-8703818D02*
G01*
X8932672Y-8667495D01*
X8899906Y-8663686D01*
X8903461Y-8667495D01*
X8907272Y-8678163D01*
X8907272Y-8689086D01*
X8903461Y-8700008D01*
X8896350Y-8707374D01*
X8885427Y-8710929D01*
X8878061Y-8710929D01*
X8867140Y-8707374D01*
X8859774Y-8700008D01*
X8856218Y-8689086D01*
X8856218Y-8678163D01*
X8859774Y-8667495D01*
X8863584Y-8663686D01*
X8870695Y-8660129D01*
X8932672Y-8343900D02*
G01*
X8856218Y-8343900D01*
X8932672Y-8343900D02*
G01*
X8932672Y-8369300D01*
X8929115Y-8380221D01*
X8921750Y-8387587D01*
X8914384Y-8391144D01*
X8903461Y-8394700D01*
X8885427Y-8394700D01*
X8874506Y-8391144D01*
X8867140Y-8387587D01*
X8859774Y-8380221D01*
X8856218Y-8369300D01*
X8856218Y-8343900D01*
X8932672Y-8426195D02*
G01*
X8932672Y-8466074D01*
X8903461Y-8444229D01*
X8903461Y-8455152D01*
X8899906Y-8462518D01*
X8896350Y-8466074D01*
X8885427Y-8469629D01*
X8878061Y-8469629D01*
X8867140Y-8466074D01*
X8859774Y-8458708D01*
X8856218Y-8447786D01*
X8856218Y-8436863D01*
X8859774Y-8426195D01*
X8863584Y-8422386D01*
X8870695Y-8418829D01*
X8958072Y-8102600D02*
G01*
X8881618Y-8102600D01*
X8958072Y-8102600D02*
G01*
X8958072Y-8128000D01*
X8954515Y-8138921D01*
X8947150Y-8146287D01*
X8939784Y-8149844D01*
X8928861Y-8153400D01*
X8910827Y-8153400D01*
X8899906Y-8149844D01*
X8892540Y-8146287D01*
X8885174Y-8138921D01*
X8881618Y-8128000D01*
X8881618Y-8102600D01*
X8943593Y-8177529D02*
G01*
X8947150Y-8184895D01*
X8958072Y-8195563D01*
X8881618Y-8195563D01*
X8958072Y-7865110D02*
G01*
X8881618Y-7835900D01*
X8958072Y-7865110D02*
G01*
X8881618Y-7894065D01*
X8907018Y-7846821D02*
G01*
X8907018Y-7883144D01*
X8958072Y-7925308D02*
G01*
X8958072Y-7965439D01*
X8928861Y-7943595D01*
X8928861Y-7954518D01*
X8925306Y-7961629D01*
X8921750Y-7965439D01*
X8910827Y-7968995D01*
X8903461Y-7968995D01*
X8892540Y-7965439D01*
X8885174Y-7958073D01*
X8881618Y-7947152D01*
X8881618Y-7936229D01*
X8885174Y-7925308D01*
X8888984Y-7921752D01*
X8896095Y-7918195D01*
X8970772Y-7598410D02*
G01*
X8894318Y-7569200D01*
X8970772Y-7598410D02*
G01*
X8894318Y-7627365D01*
X8919718Y-7580121D02*
G01*
X8919718Y-7616444D01*
X8956293Y-7651495D02*
G01*
X8959850Y-7658608D01*
X8970772Y-7669529D01*
X8894318Y-7669529D01*
X8959705Y-7315212D02*
G01*
X8967071Y-7308100D01*
X8970627Y-7297178D01*
X8970627Y-7282700D01*
X8967071Y-7271778D01*
X8959705Y-7264412D01*
X8952593Y-7264412D01*
X8945227Y-7267968D01*
X8941671Y-7271778D01*
X8938115Y-7278890D01*
X8930749Y-7300734D01*
X8927193Y-7308100D01*
X8923383Y-7311656D01*
X8916271Y-7315212D01*
X8905349Y-7315212D01*
X8897983Y-7308100D01*
X8894427Y-7297178D01*
X8894427Y-7282700D01*
X8897983Y-7271778D01*
X8905349Y-7264412D01*
X8970627Y-7339342D02*
G01*
X8894427Y-7339342D01*
X8970627Y-7339342D02*
G01*
X8970627Y-7364742D01*
X8967071Y-7375664D01*
X8959705Y-7383030D01*
X8952593Y-7386586D01*
X8941671Y-7390142D01*
X8923383Y-7390142D01*
X8912461Y-7386586D01*
X8905349Y-7383030D01*
X8897983Y-7375664D01*
X8894427Y-7364742D01*
X8894427Y-7339342D01*
X8970627Y-7443228D02*
G01*
X8894427Y-7414272D01*
X8970627Y-7443228D02*
G01*
X8894427Y-7472438D01*
X8919827Y-7425194D02*
G01*
X8919827Y-7461516D01*
X8983472Y-7073900D02*
G01*
X8907018Y-7073900D01*
X8983472Y-7048500D02*
G01*
X8983472Y-7099300D01*
X8958072Y-7123429D02*
G01*
X8907018Y-7163308D01*
X8958072Y-7163308D02*
G01*
X8907018Y-7123429D01*
X8977884Y-6620510D02*
G01*
X8985250Y-6616700D01*
X8992615Y-6609587D01*
X8996172Y-6602221D01*
X8996172Y-6587744D01*
X8992615Y-6580378D01*
X8985250Y-6573265D01*
X8977884Y-6569455D01*
X8966961Y-6565900D01*
X8948927Y-6565900D01*
X8938006Y-6569455D01*
X8930640Y-6573265D01*
X8923274Y-6580378D01*
X8919718Y-6587744D01*
X8919718Y-6602221D01*
X8923274Y-6609587D01*
X8930640Y-6616700D01*
X8938006Y-6620510D01*
X8948927Y-6620510D01*
X8948927Y-6602221D02*
G01*
X8948927Y-6620510D01*
X8996172Y-6644386D02*
G01*
X8919718Y-6644386D01*
X8996172Y-6644386D02*
G01*
X8919718Y-6695439D01*
X8996172Y-6695439D02*
G01*
X8919718Y-6695439D01*
X8996172Y-6719315D02*
G01*
X8919718Y-6719315D01*
X8996172Y-6719315D02*
G01*
X8996172Y-6744715D01*
X8992615Y-6755637D01*
X8985250Y-6763004D01*
X8977884Y-6766560D01*
X8966961Y-6770370D01*
X8948927Y-6770370D01*
X8938006Y-6766560D01*
X8930640Y-6763004D01*
X8923274Y-6755637D01*
X8919718Y-6744715D01*
X8919718Y-6719315D01*
X1206500Y-5664707D02*
G01*
X1206500Y-5736336D01*
X1206500Y-5736336D02*
G01*
X1247394Y-5736336D01*
X1270000Y-5664707D02*
G01*
X1270000Y-5736336D01*
X1270000Y-5664707D02*
G01*
X1300479Y-5664707D01*
X1310894Y-5668010D01*
X1314195Y-5671565D01*
X1317752Y-5678423D01*
X1317752Y-5688584D01*
X1314195Y-5695442D01*
X1310894Y-5698744D01*
X1300479Y-5702300D01*
X1270000Y-5702300D01*
X1340104Y-5664707D02*
G01*
X1357121Y-5736336D01*
X1374139Y-5664707D02*
G01*
X1357121Y-5736336D01*
X1374139Y-5664707D02*
G01*
X1391157Y-5736336D01*
X1408429Y-5664707D02*
G01*
X1391157Y-5736336D01*
X1485900Y-5664707D02*
G01*
X1485900Y-5736336D01*
X1485900Y-5664707D02*
G01*
X1516634Y-5664707D01*
X1526794Y-5668010D01*
X1530095Y-5671565D01*
X1533652Y-5678423D01*
X1533652Y-5685281D01*
X1530095Y-5691886D01*
X1526794Y-5695442D01*
X1516634Y-5698744D01*
X1485900Y-5698744D01*
X1509776Y-5698744D02*
G01*
X1533652Y-5736336D01*
X1556004Y-5664707D02*
G01*
X1556004Y-5736336D01*
X1556004Y-5664707D02*
G01*
X1586737Y-5664707D01*
X1597152Y-5668010D01*
X1600454Y-5671565D01*
X1603755Y-5678423D01*
X1603755Y-5688584D01*
X1600454Y-5695442D01*
X1597152Y-5698744D01*
X1586737Y-5702300D01*
X1556004Y-5702300D01*
X1626362Y-5664707D02*
G01*
X1643379Y-5736336D01*
X1660397Y-5664707D02*
G01*
X1643379Y-5736336D01*
X1660397Y-5664707D02*
G01*
X1677415Y-5736336D01*
X1694434Y-5664707D02*
G01*
X1677415Y-5736336D01*
X1765300Y-5664707D02*
G01*
X1765300Y-5736336D01*
X1765300Y-5736336D02*
G01*
X1806194Y-5736336D01*
X1828800Y-5709157D02*
G01*
X1869694Y-5709157D01*
X1869694Y-5702300D01*
X1866137Y-5695442D01*
X1862836Y-5691886D01*
X1855978Y-5688584D01*
X1845818Y-5688584D01*
X1838960Y-5691886D01*
X1832102Y-5698744D01*
X1828800Y-5709157D01*
X1828800Y-5715762D01*
X1832102Y-5726176D01*
X1838960Y-5732779D01*
X1845818Y-5736336D01*
X1855978Y-5736336D01*
X1862836Y-5732779D01*
X1869694Y-5726176D01*
X1892045Y-5688584D02*
G01*
X1892045Y-5736336D01*
X1892045Y-5702300D02*
G01*
X1902460Y-5691886D01*
X1909063Y-5688584D01*
X1919478Y-5688584D01*
X1926081Y-5691886D01*
X1929637Y-5702300D01*
X1929637Y-5736336D01*
X2019300Y-5652007D02*
G01*
X2019300Y-5723636D01*
X2019300Y-5652007D02*
G01*
X2050034Y-5652007D01*
X2060193Y-5655310D01*
X2063495Y-5658865D01*
X2067052Y-5665723D01*
X2067052Y-5672581D01*
X2063495Y-5679186D01*
X2060193Y-5682742D01*
X2050034Y-5686044D01*
X2019300Y-5686044D01*
X2043175Y-5686044D02*
G01*
X2067052Y-5723636D01*
X2089404Y-5696457D02*
G01*
X2130552Y-5696457D01*
X2130552Y-5689600D01*
X2126995Y-5682742D01*
X2123693Y-5679186D01*
X2116836Y-5675884D01*
X2106675Y-5675884D01*
X2099818Y-5679186D01*
X2092959Y-5686044D01*
X2089404Y-5696457D01*
X2089404Y-5703062D01*
X2092959Y-5713476D01*
X2099818Y-5720079D01*
X2106675Y-5723636D01*
X2116836Y-5723636D01*
X2123693Y-5720079D01*
X2130552Y-5713476D01*
X2152904Y-5675884D02*
G01*
X2152904Y-5723636D01*
X2152904Y-5689600D02*
G01*
X2163063Y-5679186D01*
X2169922Y-5675884D01*
X2180081Y-5675884D01*
X2186940Y-5679186D01*
X2190495Y-5689600D01*
X2190495Y-5723636D01*
X1206500Y-6439407D02*
G01*
X1206500Y-6511036D01*
X1206500Y-6511036D02*
G01*
X1247394Y-6511036D01*
X1270000Y-6439407D02*
G01*
X1270000Y-6511036D01*
X1270000Y-6439407D02*
G01*
X1300479Y-6439407D01*
X1310894Y-6442710D01*
X1314195Y-6446265D01*
X1317752Y-6453123D01*
X1317752Y-6463284D01*
X1314195Y-6470142D01*
X1310894Y-6473444D01*
X1300479Y-6477000D01*
X1270000Y-6477000D01*
X1340104Y-6439407D02*
G01*
X1357121Y-6511036D01*
X1374139Y-6439407D02*
G01*
X1357121Y-6511036D01*
X1374139Y-6439407D02*
G01*
X1391157Y-6511036D01*
X1408429Y-6439407D02*
G01*
X1391157Y-6511036D01*
X1498600Y-6426707D02*
G01*
X1498600Y-6498336D01*
X1498600Y-6426707D02*
G01*
X1529334Y-6426707D01*
X1539494Y-6430010D01*
X1542795Y-6433565D01*
X1546352Y-6440423D01*
X1546352Y-6447281D01*
X1542795Y-6453886D01*
X1539494Y-6457442D01*
X1529334Y-6460744D01*
X1498600Y-6460744D01*
X1522476Y-6460744D02*
G01*
X1546352Y-6498336D01*
X1568704Y-6426707D02*
G01*
X1568704Y-6498336D01*
X1568704Y-6426707D02*
G01*
X1599437Y-6426707D01*
X1609852Y-6430010D01*
X1613154Y-6433565D01*
X1616455Y-6440423D01*
X1616455Y-6450584D01*
X1613154Y-6457442D01*
X1609852Y-6460744D01*
X1599437Y-6464300D01*
X1568704Y-6464300D01*
X1639062Y-6426707D02*
G01*
X1656079Y-6498336D01*
X1673097Y-6426707D02*
G01*
X1656079Y-6498336D01*
X1673097Y-6426707D02*
G01*
X1690115Y-6498336D01*
X1707134Y-6426707D02*
G01*
X1690115Y-6498336D01*
X1790700Y-6426707D02*
G01*
X1790700Y-6498336D01*
X1790700Y-6498336D02*
G01*
X1831594Y-6498336D01*
X1854200Y-6471157D02*
G01*
X1895094Y-6471157D01*
X1895094Y-6464300D01*
X1891537Y-6457442D01*
X1888236Y-6453886D01*
X1881378Y-6450584D01*
X1871218Y-6450584D01*
X1864360Y-6453886D01*
X1857502Y-6460744D01*
X1854200Y-6471157D01*
X1854200Y-6477762D01*
X1857502Y-6488176D01*
X1864360Y-6494779D01*
X1871218Y-6498336D01*
X1881378Y-6498336D01*
X1888236Y-6494779D01*
X1895094Y-6488176D01*
X1917445Y-6450584D02*
G01*
X1917445Y-6498336D01*
X1917445Y-6464300D02*
G01*
X1927860Y-6453886D01*
X1934463Y-6450584D01*
X1944877Y-6450584D01*
X1951481Y-6453886D01*
X1955038Y-6464300D01*
X1955038Y-6498336D01*
X2032000Y-6414007D02*
G01*
X2032000Y-6485636D01*
X2032000Y-6414007D02*
G01*
X2062734Y-6414007D01*
X2072893Y-6417310D01*
X2076195Y-6420865D01*
X2079752Y-6427723D01*
X2079752Y-6434581D01*
X2076195Y-6441186D01*
X2072893Y-6444742D01*
X2062734Y-6448044D01*
X2032000Y-6448044D01*
X2055875Y-6448044D02*
G01*
X2079752Y-6485636D01*
X2102104Y-6458457D02*
G01*
X2143252Y-6458457D01*
X2143252Y-6451600D01*
X2139695Y-6444742D01*
X2136393Y-6441186D01*
X2129536Y-6437884D01*
X2119375Y-6437884D01*
X2112518Y-6441186D01*
X2105659Y-6448044D01*
X2102104Y-6458457D01*
X2102104Y-6465062D01*
X2105659Y-6475476D01*
X2112518Y-6482079D01*
X2119375Y-6485636D01*
X2129536Y-6485636D01*
X2136393Y-6482079D01*
X2143252Y-6475476D01*
X2165604Y-6437884D02*
G01*
X2165604Y-6485636D01*
X2165604Y-6451600D02*
G01*
X2175763Y-6441186D01*
X2182622Y-6437884D01*
X2192781Y-6437884D01*
X2199640Y-6441186D01*
X2203195Y-6451600D01*
X2203195Y-6485636D01*
X2260600Y-5652007D02*
G01*
X2287777Y-5723636D01*
X2315209Y-5652007D02*
G01*
X2287777Y-5723636D01*
X2378456Y-5686044D02*
G01*
X2371852Y-5679186D01*
X2364993Y-5675884D01*
X2354579Y-5675884D01*
X2347975Y-5679186D01*
X2341118Y-5686044D01*
X2337561Y-5696457D01*
X2337561Y-5703062D01*
X2341118Y-5713476D01*
X2347975Y-5720079D01*
X2354579Y-5723636D01*
X2364993Y-5723636D01*
X2371852Y-5720079D01*
X2378456Y-5713476D01*
X2441956Y-5686044D02*
G01*
X2435097Y-5679186D01*
X2428240Y-5675884D01*
X2418079Y-5675884D01*
X2411222Y-5679186D01*
X2404363Y-5686044D01*
X2401061Y-5696457D01*
X2401061Y-5703062D01*
X2404363Y-5713476D01*
X2411222Y-5720079D01*
X2418079Y-5723636D01*
X2428240Y-5723636D01*
X2435097Y-5720079D01*
X2441956Y-5713476D01*
X2565654Y-5669026D02*
G01*
X2562352Y-5662168D01*
X2555493Y-5655310D01*
X2548636Y-5652007D01*
X2535174Y-5652007D01*
X2528315Y-5655310D01*
X2521458Y-5662168D01*
X2517902Y-5669026D01*
X2514600Y-5679186D01*
X2514600Y-5696457D01*
X2517902Y-5706618D01*
X2521458Y-5713476D01*
X2528315Y-5720079D01*
X2535174Y-5723636D01*
X2548636Y-5723636D01*
X2555493Y-5720079D01*
X2562352Y-5713476D01*
X2565654Y-5706618D01*
X2565654Y-5696457D01*
X2548636Y-5696457D02*
G01*
X2565654Y-5696457D01*
X2588259Y-5652007D02*
G01*
X2588259Y-5723636D01*
X2588259Y-5652007D02*
G01*
X2636011Y-5723636D01*
X2636011Y-5652007D02*
G01*
X2636011Y-5723636D01*
X2658363Y-5652007D02*
G01*
X2658363Y-5723636D01*
X2658363Y-5652007D02*
G01*
X2682240Y-5652007D01*
X2692654Y-5655310D01*
X2699258Y-5662168D01*
X2702813Y-5669026D01*
X2706115Y-5679186D01*
X2706115Y-5696457D01*
X2702813Y-5706618D01*
X2699258Y-5713476D01*
X2692654Y-5720079D01*
X2682240Y-5723636D01*
X2658363Y-5723636D01*
X2565654Y-6431026D02*
G01*
X2562352Y-6424168D01*
X2555493Y-6417310D01*
X2548636Y-6414007D01*
X2535174Y-6414007D01*
X2528315Y-6417310D01*
X2521458Y-6424168D01*
X2517902Y-6431026D01*
X2514600Y-6441186D01*
X2514600Y-6458457D01*
X2517902Y-6468618D01*
X2521458Y-6475476D01*
X2528315Y-6482079D01*
X2535174Y-6485636D01*
X2548636Y-6485636D01*
X2555493Y-6482079D01*
X2562352Y-6475476D01*
X2565654Y-6468618D01*
X2565654Y-6458457D01*
X2548636Y-6458457D02*
G01*
X2565654Y-6458457D01*
X2588259Y-6414007D02*
G01*
X2588259Y-6485636D01*
X2588259Y-6414007D02*
G01*
X2636011Y-6485636D01*
X2636011Y-6414007D02*
G01*
X2636011Y-6485636D01*
X2658363Y-6414007D02*
G01*
X2658363Y-6485636D01*
X2658363Y-6414007D02*
G01*
X2682240Y-6414007D01*
X2692654Y-6417310D01*
X2699258Y-6424168D01*
X2702813Y-6431026D01*
X2706115Y-6441186D01*
X2706115Y-6458457D01*
X2702813Y-6468618D01*
X2699258Y-6475476D01*
X2692654Y-6482079D01*
X2682240Y-6485636D01*
X2658363Y-6485636D01*
X2260600Y-6414007D02*
G01*
X2287777Y-6485636D01*
X2315209Y-6414007D02*
G01*
X2287777Y-6485636D01*
X2378456Y-6448044D02*
G01*
X2371852Y-6441186D01*
X2364993Y-6437884D01*
X2354579Y-6437884D01*
X2347975Y-6441186D01*
X2341118Y-6448044D01*
X2337561Y-6458457D01*
X2337561Y-6465062D01*
X2341118Y-6475476D01*
X2347975Y-6482079D01*
X2354579Y-6485636D01*
X2364993Y-6485636D01*
X2371852Y-6482079D01*
X2378456Y-6475476D01*
X2441956Y-6448044D02*
G01*
X2435097Y-6441186D01*
X2428240Y-6437884D01*
X2418079Y-6437884D01*
X2411222Y-6441186D01*
X2404363Y-6448044D01*
X2401061Y-6458457D01*
X2401061Y-6465062D01*
X2404363Y-6475476D01*
X2411222Y-6482079D01*
X2418079Y-6485636D01*
X2428240Y-6485636D01*
X2435097Y-6482079D01*
X2441956Y-6475476D01*
X1651000Y-8128508D02*
G01*
X1651000Y-8200136D01*
X1651000Y-8200136D02*
G01*
X1691894Y-8200136D01*
X1714500Y-8128508D02*
G01*
X1714500Y-8200136D01*
X1714500Y-8128508D02*
G01*
X1744979Y-8128508D01*
X1755394Y-8131810D01*
X1758695Y-8135365D01*
X1762252Y-8142223D01*
X1762252Y-8152384D01*
X1758695Y-8159242D01*
X1755394Y-8162544D01*
X1744979Y-8166100D01*
X1714500Y-8166100D01*
X1784604Y-8128508D02*
G01*
X1801621Y-8200136D01*
X1818639Y-8128508D02*
G01*
X1801621Y-8200136D01*
X1818639Y-8128508D02*
G01*
X1835657Y-8200136D01*
X1852929Y-8128508D02*
G01*
X1835657Y-8200136D01*
X1930400Y-8128508D02*
G01*
X1930400Y-8200136D01*
X1930400Y-8128508D02*
G01*
X1961134Y-8128508D01*
X1971293Y-8131810D01*
X1974595Y-8135365D01*
X1978152Y-8142223D01*
X1978152Y-8149081D01*
X1974595Y-8155686D01*
X1971293Y-8159242D01*
X1961134Y-8162544D01*
X1930400Y-8162544D01*
X1954275Y-8162544D02*
G01*
X1978152Y-8200136D01*
X2000504Y-8128508D02*
G01*
X2000504Y-8200136D01*
X2000504Y-8128508D02*
G01*
X2031238Y-8128508D01*
X2041652Y-8131810D01*
X2044954Y-8135365D01*
X2048256Y-8142223D01*
X2048256Y-8152384D01*
X2044954Y-8159242D01*
X2041652Y-8162544D01*
X2031238Y-8166100D01*
X2000504Y-8166100D01*
X2070861Y-8128508D02*
G01*
X2087879Y-8200136D01*
X2104897Y-8128508D02*
G01*
X2087879Y-8200136D01*
X2104897Y-8128508D02*
G01*
X2121915Y-8200136D01*
X2138934Y-8128508D02*
G01*
X2121915Y-8200136D01*
X2209800Y-8128508D02*
G01*
X2209800Y-8200136D01*
X2209800Y-8200136D02*
G01*
X2250693Y-8200136D01*
X2273300Y-8172958D02*
G01*
X2314193Y-8172958D01*
X2314193Y-8166100D01*
X2310638Y-8159242D01*
X2307336Y-8155686D01*
X2300477Y-8152384D01*
X2290318Y-8152384D01*
X2283459Y-8155686D01*
X2276602Y-8162544D01*
X2273300Y-8172958D01*
X2273300Y-8179562D01*
X2276602Y-8189976D01*
X2283459Y-8196579D01*
X2290318Y-8200136D01*
X2300477Y-8200136D01*
X2307336Y-8196579D01*
X2314193Y-8189976D01*
X2336545Y-8152384D02*
G01*
X2336545Y-8200136D01*
X2336545Y-8166100D02*
G01*
X2346959Y-8155686D01*
X2353563Y-8152384D01*
X2363977Y-8152384D01*
X2370581Y-8155686D01*
X2374138Y-8166100D01*
X2374138Y-8200136D01*
X2463800Y-8115808D02*
G01*
X2463800Y-8187436D01*
X2463800Y-8115808D02*
G01*
X2494534Y-8115808D01*
X2504693Y-8119110D01*
X2507995Y-8122665D01*
X2511552Y-8129523D01*
X2511552Y-8136381D01*
X2507995Y-8142986D01*
X2504693Y-8146542D01*
X2494534Y-8149844D01*
X2463800Y-8149844D01*
X2487675Y-8149844D02*
G01*
X2511552Y-8187436D01*
X2533904Y-8160258D02*
G01*
X2575052Y-8160258D01*
X2575052Y-8153400D01*
X2571495Y-8146542D01*
X2568193Y-8142986D01*
X2561336Y-8139684D01*
X2551175Y-8139684D01*
X2544318Y-8142986D01*
X2537459Y-8149844D01*
X2533904Y-8160258D01*
X2533904Y-8166862D01*
X2537459Y-8177276D01*
X2544318Y-8183879D01*
X2551175Y-8187436D01*
X2561336Y-8187436D01*
X2568193Y-8183879D01*
X2575052Y-8177276D01*
X2597404Y-8139684D02*
G01*
X2597404Y-8187436D01*
X2597404Y-8153400D02*
G01*
X2607563Y-8142986D01*
X2614422Y-8139684D01*
X2624581Y-8139684D01*
X2631440Y-8142986D01*
X2634995Y-8153400D01*
X2634995Y-8187436D01*
X2705100Y-8115808D02*
G01*
X2732277Y-8187436D01*
X2759709Y-8115808D02*
G01*
X2732277Y-8187436D01*
X2822956Y-8149844D02*
G01*
X2816352Y-8142986D01*
X2809493Y-8139684D01*
X2799079Y-8139684D01*
X2792475Y-8142986D01*
X2785618Y-8149844D01*
X2782061Y-8160258D01*
X2782061Y-8166862D01*
X2785618Y-8177276D01*
X2792475Y-8183879D01*
X2799079Y-8187436D01*
X2809493Y-8187436D01*
X2816352Y-8183879D01*
X2822956Y-8177276D01*
X2886456Y-8149844D02*
G01*
X2879597Y-8142986D01*
X2872740Y-8139684D01*
X2862579Y-8139684D01*
X2855722Y-8142986D01*
X2848863Y-8149844D01*
X2845561Y-8160258D01*
X2845561Y-8166862D01*
X2848863Y-8177276D01*
X2855722Y-8183879D01*
X2862579Y-8187436D01*
X2872740Y-8187436D01*
X2879597Y-8183879D01*
X2886456Y-8177276D01*
X3010154Y-8132826D02*
G01*
X3006852Y-8125968D01*
X2999993Y-8119110D01*
X2993136Y-8115808D01*
X2979674Y-8115808D01*
X2972815Y-8119110D01*
X2965958Y-8125968D01*
X2962402Y-8132826D01*
X2959100Y-8142986D01*
X2959100Y-8160258D01*
X2962402Y-8170418D01*
X2965958Y-8177276D01*
X2972815Y-8183879D01*
X2979674Y-8187436D01*
X2993136Y-8187436D01*
X2999993Y-8183879D01*
X3006852Y-8177276D01*
X3010154Y-8170418D01*
X3010154Y-8160258D01*
X2993136Y-8160258D02*
G01*
X3010154Y-8160258D01*
X3032759Y-8115808D02*
G01*
X3032759Y-8187436D01*
X3032759Y-8115808D02*
G01*
X3080511Y-8187436D01*
X3080511Y-8115808D02*
G01*
X3080511Y-8187436D01*
X3102863Y-8115808D02*
G01*
X3102863Y-8187436D01*
X3102863Y-8115808D02*
G01*
X3126740Y-8115808D01*
X3137154Y-8119110D01*
X3143758Y-8125968D01*
X3147313Y-8132826D01*
X3150615Y-8142986D01*
X3150615Y-8160258D01*
X3147313Y-8170418D01*
X3143758Y-8177276D01*
X3137154Y-8183879D01*
X3126740Y-8187436D01*
X3102863Y-8187436D01*
X1689100Y-8954008D02*
G01*
X1689100Y-9025636D01*
X1689100Y-9025636D02*
G01*
X1729994Y-9025636D01*
X1752600Y-8954008D02*
G01*
X1752600Y-9025636D01*
X1752600Y-8954008D02*
G01*
X1783079Y-8954008D01*
X1793494Y-8957310D01*
X1796795Y-8960865D01*
X1800352Y-8967724D01*
X1800352Y-8977884D01*
X1796795Y-8984742D01*
X1793494Y-8988044D01*
X1783079Y-8991600D01*
X1752600Y-8991600D01*
X1822704Y-8954008D02*
G01*
X1839721Y-9025636D01*
X1856739Y-8954008D02*
G01*
X1839721Y-9025636D01*
X1856739Y-8954008D02*
G01*
X1873757Y-9025636D01*
X1891029Y-8954008D02*
G01*
X1873757Y-9025636D01*
X1968500Y-8954008D02*
G01*
X1968500Y-9025636D01*
X1968500Y-8954008D02*
G01*
X1999234Y-8954008D01*
X2009393Y-8957310D01*
X2012695Y-8960865D01*
X2016252Y-8967724D01*
X2016252Y-8974581D01*
X2012695Y-8981186D01*
X2009393Y-8984742D01*
X1999234Y-8988044D01*
X1968500Y-8988044D01*
X1992375Y-8988044D02*
G01*
X2016252Y-9025636D01*
X2038604Y-8954008D02*
G01*
X2038604Y-9025636D01*
X2038604Y-8954008D02*
G01*
X2069338Y-8954008D01*
X2079752Y-8957310D01*
X2083054Y-8960865D01*
X2086356Y-8967724D01*
X2086356Y-8977884D01*
X2083054Y-8984742D01*
X2079752Y-8988044D01*
X2069338Y-8991600D01*
X2038604Y-8991600D01*
X2108961Y-8954008D02*
G01*
X2125979Y-9025636D01*
X2142997Y-8954008D02*
G01*
X2125979Y-9025636D01*
X2142997Y-8954008D02*
G01*
X2160015Y-9025636D01*
X2177034Y-8954008D02*
G01*
X2160015Y-9025636D01*
X2247900Y-8954008D02*
G01*
X2247900Y-9025636D01*
X2247900Y-9025636D02*
G01*
X2288793Y-9025636D01*
X2311400Y-8998458D02*
G01*
X2352293Y-8998458D01*
X2352293Y-8991600D01*
X2348738Y-8984742D01*
X2345436Y-8981186D01*
X2338577Y-8977884D01*
X2328418Y-8977884D01*
X2321559Y-8981186D01*
X2314702Y-8988044D01*
X2311400Y-8998458D01*
X2311400Y-9005062D01*
X2314702Y-9015476D01*
X2321559Y-9022079D01*
X2328418Y-9025636D01*
X2338577Y-9025636D01*
X2345436Y-9022079D01*
X2352293Y-9015476D01*
X2374645Y-8977884D02*
G01*
X2374645Y-9025636D01*
X2374645Y-8991600D02*
G01*
X2385059Y-8981186D01*
X2391663Y-8977884D01*
X2402077Y-8977884D01*
X2408681Y-8981186D01*
X2412238Y-8991600D01*
X2412238Y-9025636D01*
X2501900Y-8941308D02*
G01*
X2501900Y-9012936D01*
X2501900Y-8941308D02*
G01*
X2532634Y-8941308D01*
X2542793Y-8944610D01*
X2546095Y-8948165D01*
X2549652Y-8955024D01*
X2549652Y-8961881D01*
X2546095Y-8968486D01*
X2542793Y-8972042D01*
X2532634Y-8975344D01*
X2501900Y-8975344D01*
X2525775Y-8975344D02*
G01*
X2549652Y-9012936D01*
X2572004Y-8985758D02*
G01*
X2613152Y-8985758D01*
X2613152Y-8978900D01*
X2609595Y-8972042D01*
X2606293Y-8968486D01*
X2599436Y-8965184D01*
X2589275Y-8965184D01*
X2582418Y-8968486D01*
X2575559Y-8975344D01*
X2572004Y-8985758D01*
X2572004Y-8992362D01*
X2575559Y-9002776D01*
X2582418Y-9009379D01*
X2589275Y-9012936D01*
X2599436Y-9012936D01*
X2606293Y-9009379D01*
X2613152Y-9002776D01*
X2635504Y-8965184D02*
G01*
X2635504Y-9012936D01*
X2635504Y-8978900D02*
G01*
X2645663Y-8968486D01*
X2652522Y-8965184D01*
X2662681Y-8965184D01*
X2669540Y-8968486D01*
X2673095Y-8978900D01*
X2673095Y-9012936D01*
X2743200Y-8941308D02*
G01*
X2770377Y-9012936D01*
X2797809Y-8941308D02*
G01*
X2770377Y-9012936D01*
X2861056Y-8975344D02*
G01*
X2854452Y-8968486D01*
X2847593Y-8965184D01*
X2837179Y-8965184D01*
X2830575Y-8968486D01*
X2823718Y-8975344D01*
X2820161Y-8985758D01*
X2820161Y-8992362D01*
X2823718Y-9002776D01*
X2830575Y-9009379D01*
X2837179Y-9012936D01*
X2847593Y-9012936D01*
X2854452Y-9009379D01*
X2861056Y-9002776D01*
X2924556Y-8975344D02*
G01*
X2917697Y-8968486D01*
X2910840Y-8965184D01*
X2900679Y-8965184D01*
X2893822Y-8968486D01*
X2886963Y-8975344D01*
X2883661Y-8985758D01*
X2883661Y-8992362D01*
X2886963Y-9002776D01*
X2893822Y-9009379D01*
X2900679Y-9012936D01*
X2910840Y-9012936D01*
X2917697Y-9009379D01*
X2924556Y-9002776D01*
X3048254Y-8958326D02*
G01*
X3044952Y-8951468D01*
X3038093Y-8944610D01*
X3031236Y-8941308D01*
X3017774Y-8941308D01*
X3010915Y-8944610D01*
X3004058Y-8951468D01*
X3000502Y-8958326D01*
X2997200Y-8968486D01*
X2997200Y-8985758D01*
X3000502Y-8995918D01*
X3004058Y-9002776D01*
X3010915Y-9009379D01*
X3017774Y-9012936D01*
X3031236Y-9012936D01*
X3038093Y-9009379D01*
X3044952Y-9002776D01*
X3048254Y-8995918D01*
X3048254Y-8985758D01*
X3031236Y-8985758D02*
G01*
X3048254Y-8985758D01*
X3070859Y-8941308D02*
G01*
X3070859Y-9012936D01*
X3070859Y-8941308D02*
G01*
X3118611Y-9012936D01*
X3118611Y-8941308D02*
G01*
X3118611Y-9012936D01*
X3140963Y-8941308D02*
G01*
X3140963Y-9012936D01*
X3140963Y-8941308D02*
G01*
X3164840Y-8941308D01*
X3175254Y-8944610D01*
X3181858Y-8951468D01*
X3185413Y-8958326D01*
X3188715Y-8968486D01*
X3188715Y-8985758D01*
X3185413Y-8995918D01*
X3181858Y-9002776D01*
X3175254Y-9009379D01*
X3164840Y-9012936D01*
X3140963Y-9012936D01*
D11*
X5854700Y-9004808D02*
G01*
X5881877Y-9076436D01*
X5909309Y-9004808D02*
G01*
X5881877Y-9076436D01*
X5972556Y-9004808D02*
G01*
X5972556Y-9076436D01*
X5972556Y-9038844D02*
G01*
X5965952Y-9031986D01*
X5959093Y-9028684D01*
X5948679Y-9028684D01*
X5942075Y-9031986D01*
X5935218Y-9038844D01*
X5931661Y-9049258D01*
X5931661Y-9055862D01*
X5935218Y-9066276D01*
X5942075Y-9072879D01*
X5948679Y-9076436D01*
X5959093Y-9076436D01*
X5965952Y-9072879D01*
X5972556Y-9066276D01*
X6036056Y-9004808D02*
G01*
X6036056Y-9076436D01*
X6036056Y-9038844D02*
G01*
X6029197Y-9031986D01*
X6022340Y-9028684D01*
X6012179Y-9028684D01*
X6005322Y-9031986D01*
X5998463Y-9038844D01*
X5995161Y-9049258D01*
X5995161Y-9055862D01*
X5998463Y-9066276D01*
X6005322Y-9072879D01*
X6012179Y-9076436D01*
X6022340Y-9076436D01*
X6029197Y-9072879D01*
X6036056Y-9066276D01*
X6181852Y-9002268D02*
G01*
X6174993Y-8995410D01*
X6164834Y-8992108D01*
X6151118Y-8992108D01*
X6140958Y-8995410D01*
X6134100Y-9002268D01*
X6134100Y-9009126D01*
X6137402Y-9015984D01*
X6140958Y-9019286D01*
X6147815Y-9022842D01*
X6168136Y-9029700D01*
X6174993Y-9033002D01*
X6178295Y-9036558D01*
X6181852Y-9043162D01*
X6181852Y-9053576D01*
X6174993Y-9060179D01*
X6164834Y-9063736D01*
X6151118Y-9063736D01*
X6140958Y-9060179D01*
X6134100Y-9053576D01*
X6204204Y-8992108D02*
G01*
X6204204Y-9063736D01*
X6204204Y-8992108D02*
G01*
X6228079Y-8992108D01*
X6238493Y-8995410D01*
X6245352Y-9002268D01*
X6248654Y-9009126D01*
X6251956Y-9019286D01*
X6251956Y-9036558D01*
X6248654Y-9046718D01*
X6245352Y-9053576D01*
X6238493Y-9060179D01*
X6228079Y-9063736D01*
X6204204Y-9063736D01*
X6301740Y-8992108D02*
G01*
X6274561Y-9063736D01*
X6301740Y-8992108D02*
G01*
X6329172Y-9063736D01*
X6284722Y-9039860D02*
G01*
X6318758Y-9039860D01*
X6461252Y-9014968D02*
G01*
X6454393Y-9008110D01*
X6444234Y-9004808D01*
X6430518Y-9004808D01*
X6420358Y-9008110D01*
X6413500Y-9014968D01*
X6413500Y-9021826D01*
X6416802Y-9028684D01*
X6420358Y-9031986D01*
X6427215Y-9035542D01*
X6447536Y-9042400D01*
X6454393Y-9045702D01*
X6457695Y-9049258D01*
X6461252Y-9055862D01*
X6461252Y-9066276D01*
X6454393Y-9072879D01*
X6444234Y-9076436D01*
X6430518Y-9076436D01*
X6420358Y-9072879D01*
X6413500Y-9066276D01*
X6534911Y-9021826D02*
G01*
X6531356Y-9014968D01*
X6524752Y-9008110D01*
X6517893Y-9004808D01*
X6504177Y-9004808D01*
X6497320Y-9008110D01*
X6490461Y-9014968D01*
X6487159Y-9021826D01*
X6483604Y-9031986D01*
X6483604Y-9049258D01*
X6487159Y-9059418D01*
X6490461Y-9066276D01*
X6497320Y-9072879D01*
X6504177Y-9076436D01*
X6517893Y-9076436D01*
X6524752Y-9072879D01*
X6531356Y-9066276D01*
X6534911Y-9059418D01*
X6557263Y-9004808D02*
G01*
X6557263Y-9076436D01*
X6557263Y-9076436D02*
G01*
X6598158Y-9076436D01*
X6959854Y-9021826D02*
G01*
X6956552Y-9014968D01*
X6949693Y-9008110D01*
X6942836Y-9004808D01*
X6929374Y-9004808D01*
X6922515Y-9008110D01*
X6915658Y-9014968D01*
X6912102Y-9021826D01*
X6908800Y-9031986D01*
X6908800Y-9049258D01*
X6912102Y-9059418D01*
X6915658Y-9066276D01*
X6922515Y-9072879D01*
X6929374Y-9076436D01*
X6942836Y-9076436D01*
X6949693Y-9072879D01*
X6956552Y-9066276D01*
X6959854Y-9059418D01*
X6959854Y-9049258D01*
X6942836Y-9049258D02*
G01*
X6959854Y-9049258D01*
X6982459Y-9004808D02*
G01*
X6982459Y-9076436D01*
X6982459Y-9004808D02*
G01*
X7030211Y-9076436D01*
X7030211Y-9004808D02*
G01*
X7030211Y-9076436D01*
X7052563Y-9004808D02*
G01*
X7052563Y-9076436D01*
X7052563Y-9004808D02*
G01*
X7076440Y-9004808D01*
X7086854Y-9008110D01*
X7093458Y-9014968D01*
X7097013Y-9021826D01*
X7100315Y-9031986D01*
X7100315Y-9049258D01*
X7097013Y-9059418D01*
X7093458Y-9066276D01*
X7086854Y-9072879D01*
X7076440Y-9076436D01*
X7052563Y-9076436D01*
X5673852Y-6271768D02*
G01*
X5666993Y-6264910D01*
X5656834Y-6261607D01*
X5643118Y-6261607D01*
X5632958Y-6264910D01*
X5626100Y-6271768D01*
X5626100Y-6278626D01*
X5629402Y-6285484D01*
X5632958Y-6288786D01*
X5639815Y-6292342D01*
X5660136Y-6299200D01*
X5666993Y-6302502D01*
X5670295Y-6306057D01*
X5673852Y-6312662D01*
X5673852Y-6323076D01*
X5666993Y-6329679D01*
X5656834Y-6333236D01*
X5643118Y-6333236D01*
X5632958Y-6329679D01*
X5626100Y-6323076D01*
X5747511Y-6278626D02*
G01*
X5743956Y-6271768D01*
X5737352Y-6264910D01*
X5730493Y-6261607D01*
X5716777Y-6261607D01*
X5709920Y-6264910D01*
X5703061Y-6271768D01*
X5699759Y-6278626D01*
X5696204Y-6288786D01*
X5696204Y-6306057D01*
X5699759Y-6316218D01*
X5703061Y-6323076D01*
X5709920Y-6329679D01*
X5716777Y-6333236D01*
X5730493Y-6333236D01*
X5737352Y-6329679D01*
X5743956Y-6323076D01*
X5747511Y-6316218D01*
X5769863Y-6261607D02*
G01*
X5769863Y-6333236D01*
X5769863Y-6333236D02*
G01*
X5810758Y-6333236D01*
X5054600Y-6261607D02*
G01*
X5081777Y-6333236D01*
X5109209Y-6261607D02*
G01*
X5081777Y-6333236D01*
X5172456Y-6261607D02*
G01*
X5172456Y-6333236D01*
X5172456Y-6295644D02*
G01*
X5165852Y-6288786D01*
X5158993Y-6285484D01*
X5148579Y-6285484D01*
X5141975Y-6288786D01*
X5135118Y-6295644D01*
X5131561Y-6306057D01*
X5131561Y-6312662D01*
X5135118Y-6323076D01*
X5141975Y-6329679D01*
X5148579Y-6333236D01*
X5158993Y-6333236D01*
X5165852Y-6329679D01*
X5172456Y-6323076D01*
X5235956Y-6261607D02*
G01*
X5235956Y-6333236D01*
X5235956Y-6295644D02*
G01*
X5229097Y-6288786D01*
X5222240Y-6285484D01*
X5212079Y-6285484D01*
X5205222Y-6288786D01*
X5198363Y-6295644D01*
X5195061Y-6306057D01*
X5195061Y-6312662D01*
X5198363Y-6323076D01*
X5205222Y-6329679D01*
X5212079Y-6333236D01*
X5222240Y-6333236D01*
X5229097Y-6329679D01*
X5235956Y-6323076D01*
X5407152Y-6271768D02*
G01*
X5400293Y-6264910D01*
X5390134Y-6261607D01*
X5376418Y-6261607D01*
X5366258Y-6264910D01*
X5359400Y-6271768D01*
X5359400Y-6278626D01*
X5362702Y-6285484D01*
X5366258Y-6288786D01*
X5373115Y-6292342D01*
X5393436Y-6299200D01*
X5400293Y-6302502D01*
X5403595Y-6306057D01*
X5407152Y-6312662D01*
X5407152Y-6323076D01*
X5400293Y-6329679D01*
X5390134Y-6333236D01*
X5376418Y-6333236D01*
X5366258Y-6329679D01*
X5359400Y-6323076D01*
X5429504Y-6261607D02*
G01*
X5429504Y-6333236D01*
X5429504Y-6261607D02*
G01*
X5453379Y-6261607D01*
X5463793Y-6264910D01*
X5470652Y-6271768D01*
X5473954Y-6278626D01*
X5477256Y-6288786D01*
X5477256Y-6306057D01*
X5473954Y-6316218D01*
X5470652Y-6323076D01*
X5463793Y-6329679D01*
X5453379Y-6333236D01*
X5429504Y-6333236D01*
X5527040Y-6261607D02*
G01*
X5499861Y-6333236D01*
X5527040Y-6261607D02*
G01*
X5554472Y-6333236D01*
X5510022Y-6309360D02*
G01*
X5544058Y-6309360D01*
X4851654Y-6278626D02*
G01*
X4848352Y-6271768D01*
X4841493Y-6264910D01*
X4834636Y-6261607D01*
X4821174Y-6261607D01*
X4814315Y-6264910D01*
X4807458Y-6271768D01*
X4803902Y-6278626D01*
X4800600Y-6288786D01*
X4800600Y-6306057D01*
X4803902Y-6316218D01*
X4807458Y-6323076D01*
X4814315Y-6329679D01*
X4821174Y-6333236D01*
X4834636Y-6333236D01*
X4841493Y-6329679D01*
X4848352Y-6323076D01*
X4851654Y-6316218D01*
X4851654Y-6306057D01*
X4834636Y-6306057D02*
G01*
X4851654Y-6306057D01*
X4874259Y-6261607D02*
G01*
X4874259Y-6333236D01*
X4874259Y-6261607D02*
G01*
X4922011Y-6333236D01*
X4922011Y-6261607D02*
G01*
X4922011Y-6333236D01*
X4944363Y-6261607D02*
G01*
X4944363Y-6333236D01*
X4944363Y-6261607D02*
G01*
X4968240Y-6261607D01*
X4978654Y-6264910D01*
X4985258Y-6271768D01*
X4988813Y-6278626D01*
X4992115Y-6288786D01*
X4992115Y-6306057D01*
X4988813Y-6316218D01*
X4985258Y-6323076D01*
X4978654Y-6329679D01*
X4968240Y-6333236D01*
X4944363Y-6333236D01*
X5295900Y-5461507D02*
G01*
X5323077Y-5533136D01*
X5350509Y-5461507D02*
G01*
X5323077Y-5533136D01*
X5413756Y-5461507D02*
G01*
X5413756Y-5533136D01*
X5413756Y-5495544D02*
G01*
X5407152Y-5488686D01*
X5400293Y-5485384D01*
X5389879Y-5485384D01*
X5383275Y-5488686D01*
X5376418Y-5495544D01*
X5372861Y-5505957D01*
X5372861Y-5512562D01*
X5376418Y-5522976D01*
X5383275Y-5529579D01*
X5389879Y-5533136D01*
X5400293Y-5533136D01*
X5407152Y-5529579D01*
X5413756Y-5522976D01*
X5477256Y-5461507D02*
G01*
X5477256Y-5533136D01*
X5477256Y-5495544D02*
G01*
X5470397Y-5488686D01*
X5463540Y-5485384D01*
X5453379Y-5485384D01*
X5446522Y-5488686D01*
X5439663Y-5495544D01*
X5436361Y-5505957D01*
X5436361Y-5512562D01*
X5439663Y-5522976D01*
X5446522Y-5529579D01*
X5453379Y-5533136D01*
X5463540Y-5533136D01*
X5470397Y-5529579D01*
X5477256Y-5522976D01*
X6131052Y-5471668D02*
G01*
X6124193Y-5464810D01*
X6114034Y-5461507D01*
X6100318Y-5461507D01*
X6090158Y-5464810D01*
X6083300Y-5471668D01*
X6083300Y-5478526D01*
X6086602Y-5485384D01*
X6090158Y-5488686D01*
X6097015Y-5492242D01*
X6117336Y-5499100D01*
X6124193Y-5502402D01*
X6127495Y-5505957D01*
X6131052Y-5512562D01*
X6131052Y-5522976D01*
X6124193Y-5529579D01*
X6114034Y-5533136D01*
X6100318Y-5533136D01*
X6090158Y-5529579D01*
X6083300Y-5522976D01*
X6153404Y-5461507D02*
G01*
X6153404Y-5533136D01*
X6153404Y-5461507D02*
G01*
X6177279Y-5461507D01*
X6187693Y-5464810D01*
X6194552Y-5471668D01*
X6197854Y-5478526D01*
X6201156Y-5488686D01*
X6201156Y-5505957D01*
X6197854Y-5516118D01*
X6194552Y-5522976D01*
X6187693Y-5529579D01*
X6177279Y-5533136D01*
X6153404Y-5533136D01*
X6250940Y-5461507D02*
G01*
X6223761Y-5533136D01*
X6250940Y-5461507D02*
G01*
X6278372Y-5533136D01*
X6233922Y-5509260D02*
G01*
X6267958Y-5509260D01*
X5877052Y-5471668D02*
G01*
X5870193Y-5464810D01*
X5860034Y-5461507D01*
X5846318Y-5461507D01*
X5836158Y-5464810D01*
X5829300Y-5471668D01*
X5829300Y-5478526D01*
X5832602Y-5485384D01*
X5836158Y-5488686D01*
X5843015Y-5492242D01*
X5863336Y-5499100D01*
X5870193Y-5502402D01*
X5873495Y-5505957D01*
X5877052Y-5512562D01*
X5877052Y-5522976D01*
X5870193Y-5529579D01*
X5860034Y-5533136D01*
X5846318Y-5533136D01*
X5836158Y-5529579D01*
X5829300Y-5522976D01*
X5950711Y-5478526D02*
G01*
X5947156Y-5471668D01*
X5940552Y-5464810D01*
X5933693Y-5461507D01*
X5919977Y-5461507D01*
X5913120Y-5464810D01*
X5906261Y-5471668D01*
X5902959Y-5478526D01*
X5899404Y-5488686D01*
X5899404Y-5505957D01*
X5902959Y-5516118D01*
X5906261Y-5522976D01*
X5913120Y-5529579D01*
X5919977Y-5533136D01*
X5933693Y-5533136D01*
X5940552Y-5529579D01*
X5947156Y-5522976D01*
X5950711Y-5516118D01*
X5973063Y-5461507D02*
G01*
X5973063Y-5533136D01*
X5973063Y-5533136D02*
G01*
X6013958Y-5533136D01*
X5613654Y-5478526D02*
G01*
X5610352Y-5471668D01*
X5603493Y-5464810D01*
X5596636Y-5461507D01*
X5583174Y-5461507D01*
X5576315Y-5464810D01*
X5569458Y-5471668D01*
X5565902Y-5478526D01*
X5562600Y-5488686D01*
X5562600Y-5505957D01*
X5565902Y-5516118D01*
X5569458Y-5522976D01*
X5576315Y-5529579D01*
X5583174Y-5533136D01*
X5596636Y-5533136D01*
X5603493Y-5529579D01*
X5610352Y-5522976D01*
X5613654Y-5516118D01*
X5613654Y-5505957D01*
X5596636Y-5505957D02*
G01*
X5613654Y-5505957D01*
X5636259Y-5461507D02*
G01*
X5636259Y-5533136D01*
X5636259Y-5461507D02*
G01*
X5684011Y-5533136D01*
X5684011Y-5461507D02*
G01*
X5684011Y-5533136D01*
X5706363Y-5461507D02*
G01*
X5706363Y-5533136D01*
X5706363Y-5461507D02*
G01*
X5730240Y-5461507D01*
X5740654Y-5464810D01*
X5747258Y-5471668D01*
X5750813Y-5478526D01*
X5754115Y-5488686D01*
X5754115Y-5505957D01*
X5750813Y-5516118D01*
X5747258Y-5522976D01*
X5740654Y-5529579D01*
X5730240Y-5533136D01*
X5706363Y-5533136D01*
X7607300Y-5448807D02*
G01*
X7607300Y-5520436D01*
X7607300Y-5448807D02*
G01*
X7638034Y-5448807D01*
X7648193Y-5452110D01*
X7651495Y-5455665D01*
X7655052Y-5462523D01*
X7655052Y-5469381D01*
X7651495Y-5475986D01*
X7648193Y-5479542D01*
X7638034Y-5482844D01*
X7607300Y-5482844D01*
X7631175Y-5482844D02*
G01*
X7655052Y-5520436D01*
X7677404Y-5472684D02*
G01*
X7714995Y-5520436D01*
X7714995Y-5472684D02*
G01*
X7677404Y-5520436D01*
X7885175Y-5448807D02*
G01*
X7885175Y-5520436D01*
X7861300Y-5448807D02*
G01*
X7909052Y-5448807D01*
X7931404Y-5472684D02*
G01*
X7968995Y-5520436D01*
X7968995Y-5472684D02*
G01*
X7931404Y-5520436D01*
X8089900Y-5448807D02*
G01*
X8117077Y-5520436D01*
X8144509Y-5448807D02*
G01*
X8117077Y-5520436D01*
X8207756Y-5448807D02*
G01*
X8207756Y-5520436D01*
X8207756Y-5482844D02*
G01*
X8201152Y-5475986D01*
X8194293Y-5472684D01*
X8183879Y-5472684D01*
X8177275Y-5475986D01*
X8170418Y-5482844D01*
X8166861Y-5493257D01*
X8166861Y-5499862D01*
X8170418Y-5510276D01*
X8177275Y-5516879D01*
X8183879Y-5520436D01*
X8194293Y-5520436D01*
X8201152Y-5516879D01*
X8207756Y-5510276D01*
X8271256Y-5448807D02*
G01*
X8271256Y-5520436D01*
X8271256Y-5482844D02*
G01*
X8264397Y-5475986D01*
X8257540Y-5472684D01*
X8247379Y-5472684D01*
X8240522Y-5475986D01*
X8233663Y-5482844D01*
X8230361Y-5493257D01*
X8230361Y-5499862D01*
X8233663Y-5510276D01*
X8240522Y-5516879D01*
X8247379Y-5520436D01*
X8257540Y-5520436D01*
X8264397Y-5516879D01*
X8271256Y-5510276D01*
X8420354Y-5465826D02*
G01*
X8417052Y-5458968D01*
X8410193Y-5452110D01*
X8403336Y-5448807D01*
X8389874Y-5448807D01*
X8383015Y-5452110D01*
X8376158Y-5458968D01*
X8372602Y-5465826D01*
X8369300Y-5475986D01*
X8369300Y-5493257D01*
X8372602Y-5503418D01*
X8376158Y-5510276D01*
X8383015Y-5516879D01*
X8389874Y-5520436D01*
X8403336Y-5520436D01*
X8410193Y-5516879D01*
X8417052Y-5510276D01*
X8420354Y-5503418D01*
X8420354Y-5493257D01*
X8403336Y-5493257D02*
G01*
X8420354Y-5493257D01*
X8442959Y-5448807D02*
G01*
X8442959Y-5520436D01*
X8442959Y-5448807D02*
G01*
X8490711Y-5520436D01*
X8490711Y-5448807D02*
G01*
X8490711Y-5520436D01*
X8513063Y-5448807D02*
G01*
X8513063Y-5520436D01*
X8513063Y-5448807D02*
G01*
X8536940Y-5448807D01*
X8547354Y-5452110D01*
X8553958Y-5458968D01*
X8557513Y-5465826D01*
X8560815Y-5475986D01*
X8560815Y-5493257D01*
X8557513Y-5503418D01*
X8553958Y-5510276D01*
X8547354Y-5516879D01*
X8536940Y-5520436D01*
X8513063Y-5520436D01*
X6124956Y-8469884D02*
G01*
X6083300Y-8578850D01*
X6124956Y-8469884D02*
G01*
X6166358Y-8578850D01*
X6098793Y-8542528D02*
G01*
X6150863Y-8542528D01*
X6205981Y-8495792D02*
G01*
X6205981Y-8490712D01*
X6211061Y-8480297D01*
X6216395Y-8474963D01*
X6226809Y-8469884D01*
X6247384Y-8469884D01*
X6257797Y-8474963D01*
X6263131Y-8480297D01*
X6268211Y-8490712D01*
X6268211Y-8501126D01*
X6263131Y-8511539D01*
X6252718Y-8527034D01*
X6200647Y-8578850D01*
X6273545Y-8578850D01*
X6307836Y-8469884D02*
G01*
X6307836Y-8578850D01*
X6307836Y-8469884D02*
G01*
X6354572Y-8469884D01*
X6370065Y-8474963D01*
X6375400Y-8480297D01*
X6380479Y-8490712D01*
X6380479Y-8506205D01*
X6375400Y-8516620D01*
X6370065Y-8521700D01*
X6354572Y-8527034D01*
X6307836Y-8527034D01*
X6492747Y-8495792D02*
G01*
X6487413Y-8485378D01*
X6477000Y-8474963D01*
X6466840Y-8469884D01*
X6446011Y-8469884D01*
X6435597Y-8474963D01*
X6425184Y-8485378D01*
X6419850Y-8495792D01*
X6414770Y-8511539D01*
X6414770Y-8537447D01*
X6419850Y-8552942D01*
X6425184Y-8563355D01*
X6435597Y-8573770D01*
X6446011Y-8578850D01*
X6466840Y-8578850D01*
X6477000Y-8573770D01*
X6487413Y-8563355D01*
X6492747Y-8552942D01*
X6568440Y-8469884D02*
G01*
X6527038Y-8578850D01*
X6568440Y-8469884D02*
G01*
X6610095Y-8578850D01*
X6542531Y-8542528D02*
G01*
X6594602Y-8542528D01*
X1866900Y-5485384D02*
G01*
X1866900Y-5594350D01*
X1866900Y-5485384D02*
G01*
X1913636Y-5485384D01*
X1929129Y-5490463D01*
X1934463Y-5495797D01*
X1939543Y-5506212D01*
X1939543Y-5516626D01*
X1934463Y-5527039D01*
X1929129Y-5532120D01*
X1913636Y-5537200D01*
X1866900Y-5537200D02*
G01*
X1913636Y-5537200D01*
X1929129Y-5542534D01*
X1934463Y-5547613D01*
X1939543Y-5558028D01*
X1939543Y-5573776D01*
X1934463Y-5584189D01*
X1929129Y-5589270D01*
X1913636Y-5594350D01*
X1866900Y-5594350D01*
X2010409Y-5485384D02*
G01*
X2010409Y-5594350D01*
X1973834Y-5485384D02*
G01*
X2046731Y-5485384D01*
X2153665Y-5500878D02*
G01*
X2143252Y-5490463D01*
X2127758Y-5485384D01*
X2106929Y-5485384D01*
X2091436Y-5490463D01*
X2081022Y-5500878D01*
X2081022Y-5511292D01*
X2086102Y-5521705D01*
X2091436Y-5527039D01*
X2101850Y-5532120D01*
X2132838Y-5542534D01*
X2143252Y-5547613D01*
X2148586Y-5552947D01*
X2153665Y-5563362D01*
X2153665Y-5578855D01*
X2143252Y-5589270D01*
X2127758Y-5594350D01*
X2106929Y-5594350D01*
X2091436Y-5589270D01*
X2081022Y-5578855D01*
X2187956Y-5485384D02*
G01*
X2187956Y-5594350D01*
X2222245Y-5485384D02*
G01*
X2222245Y-5594350D01*
X2222245Y-5485384D02*
G01*
X2294890Y-5594350D01*
X2294890Y-5485384D02*
G01*
X2294890Y-5594350D01*
X2019300Y-7898384D02*
G01*
X2019300Y-8007350D01*
X2019300Y-7898384D02*
G01*
X2066036Y-7898384D01*
X2081529Y-7903463D01*
X2086863Y-7908797D01*
X2091943Y-7919212D01*
X2091943Y-7934705D01*
X2086863Y-7945120D01*
X2081529Y-7950200D01*
X2066036Y-7955534D01*
X2019300Y-7955534D01*
X2204211Y-7924292D02*
G01*
X2199131Y-7913878D01*
X2188718Y-7903463D01*
X2178304Y-7898384D01*
X2157475Y-7898384D01*
X2147061Y-7903463D01*
X2136647Y-7913878D01*
X2131568Y-7924292D01*
X2126234Y-7940039D01*
X2126234Y-7965947D01*
X2131568Y-7981442D01*
X2136647Y-7991855D01*
X2147061Y-8002270D01*
X2157475Y-8007350D01*
X2178304Y-8007350D01*
X2188718Y-8002270D01*
X2199131Y-7991855D01*
X2204211Y-7981442D01*
X2280158Y-7898384D02*
G01*
X2238502Y-8007350D01*
X2280158Y-7898384D02*
G01*
X2321559Y-8007350D01*
X2254250Y-7971028D02*
G01*
X2306065Y-7971028D01*
X2355850Y-8043926D02*
G01*
X2449575Y-8043926D01*
X2514854Y-7898384D02*
G01*
X2504440Y-7903463D01*
X2494279Y-7913878D01*
X2488945Y-7924292D01*
X2483865Y-7940039D01*
X2483865Y-7965947D01*
X2488945Y-7981442D01*
X2494279Y-7991855D01*
X2504440Y-8002270D01*
X2514854Y-8007350D01*
X2535681Y-8007350D01*
X2546095Y-8002270D01*
X2556509Y-7991855D01*
X2561590Y-7981442D01*
X2566924Y-7965947D01*
X2566924Y-7940039D01*
X2561590Y-7924292D01*
X2556509Y-7913878D01*
X2546095Y-7903463D01*
X2535681Y-7898384D01*
X2514854Y-7898384D01*
X2601213Y-7898384D02*
G01*
X2601213Y-7976362D01*
X2606293Y-7991855D01*
X2616708Y-8002270D01*
X2632456Y-8007350D01*
X2642870Y-8007350D01*
X2658363Y-8002270D01*
X2668777Y-7991855D01*
X2673858Y-7976362D01*
X2673858Y-7898384D01*
X2744470Y-7898384D02*
G01*
X2744470Y-8007350D01*
X2708147Y-7898384D02*
G01*
X2781045Y-7898384D01*
X7951977Y-5930392D02*
G01*
X7946643Y-5919978D01*
X7936229Y-5909563D01*
X7926070Y-5904484D01*
X7905241Y-5904484D01*
X7894827Y-5909563D01*
X7884413Y-5919978D01*
X7879079Y-5930392D01*
X7874000Y-5946139D01*
X7874000Y-5972047D01*
X7879079Y-5987542D01*
X7884413Y-5997955D01*
X7894827Y-6008370D01*
X7905241Y-6013450D01*
X7926070Y-6013450D01*
X7936229Y-6008370D01*
X7946643Y-5997955D01*
X7951977Y-5987542D01*
X7951977Y-5972047D01*
X7926070Y-5972047D02*
G01*
X7951977Y-5972047D01*
X7986268Y-5904484D02*
G01*
X7986268Y-6013450D01*
X7986268Y-5904484D02*
G01*
X8033004Y-5904484D01*
X8048497Y-5909563D01*
X8053831Y-5914897D01*
X8058911Y-5925312D01*
X8058911Y-5940805D01*
X8053831Y-5951220D01*
X8048497Y-5956300D01*
X8033004Y-5961634D01*
X7986268Y-5961634D01*
X8166100Y-5919978D02*
G01*
X8155686Y-5909563D01*
X8139938Y-5904484D01*
X8119109Y-5904484D01*
X8103615Y-5909563D01*
X8093202Y-5919978D01*
X8093202Y-5930392D01*
X8098536Y-5940805D01*
X8103615Y-5946139D01*
X8114029Y-5951220D01*
X8145272Y-5961634D01*
X8155686Y-5966713D01*
X8160765Y-5972047D01*
X8166100Y-5982462D01*
X8166100Y-5997955D01*
X8155686Y-6008370D01*
X8139938Y-6013450D01*
X8119109Y-6013450D01*
X8103615Y-6008370D01*
X8093202Y-5997955D01*
X5676900Y-5309362D02*
G01*
X5676900Y-5404865D01*
X5676900Y-5309362D02*
G01*
X5713222Y-5404865D01*
X5749543Y-5309362D02*
G01*
X5713222Y-5404865D01*
X5749543Y-5309362D02*
G01*
X5749543Y-5404865D01*
X5816091Y-5309362D02*
G01*
X5779515Y-5404865D01*
X5816091Y-5309362D02*
G01*
X5852413Y-5404865D01*
X5793231Y-5372862D02*
G01*
X5838697Y-5372862D01*
X5950458Y-5331968D02*
G01*
X5945886Y-5322823D01*
X5936995Y-5313934D01*
X5927852Y-5309362D01*
X5909563Y-5309362D01*
X5900420Y-5313934D01*
X5891529Y-5322823D01*
X5886958Y-5331968D01*
X5882386Y-5345684D01*
X5882386Y-5368289D01*
X5886958Y-5382005D01*
X5891529Y-5391150D01*
X5900420Y-5400294D01*
X5909563Y-5404865D01*
X5927852Y-5404865D01*
X5936995Y-5400294D01*
X5945886Y-5391150D01*
X5950458Y-5382005D01*
X5950458Y-5368289D01*
X5927852Y-5368289D02*
G01*
X5950458Y-5368289D01*
X5816600Y-4533900D02*
G01*
X5816600Y-4642865D01*
X5816600Y-4533900D02*
G01*
X5863336Y-4533900D01*
X5878829Y-4538979D01*
X5884163Y-4544313D01*
X5889243Y-4554728D01*
X5889243Y-4570221D01*
X5884163Y-4580636D01*
X5878829Y-4585715D01*
X5863336Y-4591050D01*
X5816600Y-4591050D01*
X6001511Y-4559807D02*
G01*
X5996431Y-4549394D01*
X5986018Y-4538979D01*
X5975604Y-4533900D01*
X5954775Y-4533900D01*
X5944361Y-4538979D01*
X5933947Y-4549394D01*
X5928868Y-4559807D01*
X5923534Y-4575555D01*
X5923534Y-4601463D01*
X5928868Y-4616957D01*
X5933947Y-4627371D01*
X5944361Y-4637786D01*
X5954775Y-4642865D01*
X5975604Y-4642865D01*
X5986018Y-4637786D01*
X5996431Y-4627371D01*
X6001511Y-4616957D01*
X6035802Y-4533900D02*
G01*
X6035802Y-4642865D01*
X6035802Y-4533900D02*
G01*
X6082538Y-4533900D01*
X6098286Y-4538979D01*
X6103365Y-4544313D01*
X6108700Y-4554728D01*
X6108700Y-4565142D01*
X6103365Y-4575555D01*
X6098286Y-4580636D01*
X6082538Y-4585715D01*
X6035802Y-4585715D02*
G01*
X6082538Y-4585715D01*
X6098286Y-4591050D01*
X6103365Y-4596129D01*
X6108700Y-4606544D01*
X6108700Y-4622292D01*
X6103365Y-4632705D01*
X6098286Y-4637786D01*
X6082538Y-4642865D01*
X6035802Y-4642865D01*
D12*
X9954513Y-4692904D02*
G01*
X9914127Y-4692904D01*
X9910063Y-4729226D01*
X9914127Y-4725162D01*
X9926065Y-4721097D01*
X9938258Y-4721097D01*
X9950450Y-4725162D01*
X9958577Y-4733289D01*
X9962641Y-4745481D01*
X9962641Y-4753355D01*
X9958577Y-4765547D01*
X9950450Y-4773676D01*
X9938258Y-4777739D01*
X9926065Y-4777739D01*
X9914127Y-4773676D01*
X9910063Y-4769612D01*
X9906000Y-4761484D01*
X9989311Y-4692904D02*
G01*
X10021570Y-4777739D01*
X10053827Y-4692904D02*
G01*
X10021570Y-4777739D01*
D11*
X7613141Y-7478013D02*
G01*
X7608570Y-7468870D01*
X7599172Y-7459726D01*
X7590027Y-7454900D01*
X7571486Y-7454900D01*
X7562341Y-7459726D01*
X7552943Y-7468870D01*
X7548372Y-7478013D01*
X7543800Y-7491984D01*
X7543800Y-7515097D01*
X7548372Y-7528813D01*
X7552943Y-7538212D01*
X7562341Y-7547355D01*
X7571486Y-7551928D01*
X7590027Y-7551928D01*
X7599172Y-7547355D01*
X7608570Y-7538212D01*
X7613141Y-7528813D01*
X7613141Y-7515097D01*
X7590027Y-7515097D02*
G01*
X7613141Y-7515097D01*
X7643622Y-7454900D02*
G01*
X7643622Y-7551928D01*
X7643622Y-7454900D02*
G01*
X7708138Y-7551928D01*
X7708138Y-7454900D02*
G01*
X7708138Y-7551928D01*
X7738618Y-7454900D02*
G01*
X7738618Y-7551928D01*
X7738618Y-7454900D02*
G01*
X7771129Y-7454900D01*
X7784845Y-7459726D01*
X7793990Y-7468870D01*
X7798815Y-7478013D01*
X7803388Y-7491984D01*
X7803388Y-7515097D01*
X7798815Y-7528813D01*
X7793990Y-7538212D01*
X7784845Y-7547355D01*
X7771129Y-7551928D01*
X7738618Y-7551928D01*
X7543800Y-7200900D02*
G01*
X7543800Y-7297928D01*
X7543800Y-7200900D02*
G01*
X7580629Y-7297928D01*
X7617713Y-7200900D02*
G01*
X7580629Y-7297928D01*
X7617713Y-7200900D02*
G01*
X7617713Y-7297928D01*
X7675879Y-7200900D02*
G01*
X7666736Y-7205726D01*
X7657338Y-7214870D01*
X7652765Y-7224013D01*
X7648193Y-7237984D01*
X7648193Y-7261097D01*
X7652765Y-7274813D01*
X7657338Y-7284212D01*
X7666736Y-7293355D01*
X7675879Y-7297928D01*
X7694422Y-7297928D01*
X7703565Y-7293355D01*
X7712709Y-7284212D01*
X7717536Y-7274813D01*
X7722108Y-7261097D01*
X7722108Y-7237984D01*
X7717536Y-7224013D01*
X7712709Y-7214870D01*
X7703565Y-7205726D01*
X7694422Y-7200900D01*
X7675879Y-7200900D01*
X7817104Y-7214870D02*
G01*
X7807959Y-7205726D01*
X7793990Y-7200900D01*
X7775702Y-7200900D01*
X7761731Y-7205726D01*
X7752588Y-7214870D01*
X7752588Y-7224013D01*
X7757159Y-7233412D01*
X7761731Y-7237984D01*
X7771129Y-7242555D01*
X7798815Y-7251700D01*
X7807959Y-7256526D01*
X7812531Y-7261097D01*
X7817104Y-7270242D01*
X7817104Y-7284212D01*
X7807959Y-7293355D01*
X7793990Y-7297928D01*
X7775702Y-7297928D01*
X7761731Y-7293355D01*
X7752588Y-7284212D01*
X7847584Y-7200900D02*
G01*
X7847584Y-7297928D01*
X7586472Y-6934200D02*
G01*
X7540243Y-6934200D01*
X7535672Y-6975855D01*
X7540243Y-6971284D01*
X7554213Y-6966712D01*
X7567929Y-6966712D01*
X7581900Y-6971284D01*
X7591043Y-6980428D01*
X7595870Y-6994397D01*
X7595870Y-7003542D01*
X7591043Y-7017512D01*
X7581900Y-7026655D01*
X7567929Y-7031228D01*
X7554213Y-7031228D01*
X7540243Y-7026655D01*
X7535672Y-7022084D01*
X7531100Y-7012686D01*
X7626350Y-6934200D02*
G01*
X7663179Y-7031228D01*
X7700009Y-6934200D02*
G01*
X7663179Y-7031228D01*
X6654800Y-6934200D02*
G01*
X6654800Y-7031228D01*
X6654800Y-6934200D02*
G01*
X6691629Y-7031228D01*
X6728713Y-6934200D02*
G01*
X6691629Y-7031228D01*
X6728713Y-6934200D02*
G01*
X6728713Y-7031228D01*
X6759193Y-6934200D02*
G01*
X6759193Y-7031228D01*
X6854190Y-6948170D02*
G01*
X6845045Y-6939026D01*
X6831329Y-6934200D01*
X6812788Y-6934200D01*
X6798818Y-6939026D01*
X6789674Y-6948170D01*
X6789674Y-6957313D01*
X6794245Y-6966712D01*
X6798818Y-6971284D01*
X6808215Y-6975855D01*
X6835902Y-6985000D01*
X6845045Y-6989826D01*
X6849618Y-6994397D01*
X6854190Y-7003542D01*
X6854190Y-7017512D01*
X6845045Y-7026655D01*
X6831329Y-7031228D01*
X6812788Y-7031228D01*
X6798818Y-7026655D01*
X6789674Y-7017512D01*
X6912609Y-6934200D02*
G01*
X6903211Y-6939026D01*
X6894068Y-6948170D01*
X6889495Y-6957313D01*
X6884670Y-6971284D01*
X6884670Y-6994397D01*
X6889495Y-7008113D01*
X6894068Y-7017512D01*
X6903211Y-7026655D01*
X6912609Y-7031228D01*
X6930897Y-7031228D01*
X6940295Y-7026655D01*
X6949440Y-7017512D01*
X6954011Y-7008113D01*
X6958584Y-6994397D01*
X6958584Y-6971284D01*
X6954011Y-6957313D01*
X6949440Y-6948170D01*
X6940295Y-6939026D01*
X6930897Y-6934200D01*
X6912609Y-6934200D01*
X6757670Y-7202170D02*
G01*
X6748272Y-7193026D01*
X6734556Y-7188200D01*
X6716013Y-7188200D01*
X6702043Y-7193026D01*
X6692900Y-7202170D01*
X6692900Y-7211313D01*
X6697472Y-7220712D01*
X6702043Y-7225284D01*
X6711441Y-7229855D01*
X6739127Y-7239000D01*
X6748272Y-7243826D01*
X6752843Y-7248397D01*
X6757670Y-7257542D01*
X6757670Y-7271512D01*
X6748272Y-7280655D01*
X6734556Y-7285228D01*
X6716013Y-7285228D01*
X6702043Y-7280655D01*
X6692900Y-7271512D01*
X6857238Y-7211313D02*
G01*
X6852665Y-7202170D01*
X6843522Y-7193026D01*
X6834124Y-7188200D01*
X6815836Y-7188200D01*
X6806438Y-7193026D01*
X6797293Y-7202170D01*
X6792722Y-7211313D01*
X6788150Y-7225284D01*
X6788150Y-7248397D01*
X6792722Y-7262113D01*
X6797293Y-7271512D01*
X6806438Y-7280655D01*
X6815836Y-7285228D01*
X6834124Y-7285228D01*
X6843522Y-7280655D01*
X6852665Y-7271512D01*
X6857238Y-7262113D01*
X6887718Y-7188200D02*
G01*
X6887718Y-7285228D01*
X6952488Y-7188200D02*
G01*
X6887718Y-7252970D01*
X6910831Y-7229855D02*
G01*
X6952488Y-7285228D01*
X6692900Y-7454900D02*
G01*
X6692900Y-7551928D01*
X6692900Y-7454900D02*
G01*
X6734556Y-7454900D01*
X6748272Y-7459726D01*
X6752843Y-7464297D01*
X6757670Y-7473442D01*
X6757670Y-7482586D01*
X6752843Y-7491984D01*
X6748272Y-7496555D01*
X6734556Y-7501128D01*
X6692900Y-7501128D01*
X6725158Y-7501128D02*
G01*
X6757670Y-7551928D01*
X6852665Y-7468870D02*
G01*
X6843522Y-7459726D01*
X6829552Y-7454900D01*
X6811009Y-7454900D01*
X6797293Y-7459726D01*
X6788150Y-7468870D01*
X6788150Y-7478013D01*
X6792722Y-7487412D01*
X6797293Y-7491984D01*
X6806438Y-7496555D01*
X6834124Y-7505700D01*
X6843522Y-7510526D01*
X6848093Y-7515097D01*
X6852665Y-7524242D01*
X6852665Y-7538212D01*
X6843522Y-7547355D01*
X6829552Y-7551928D01*
X6811009Y-7551928D01*
X6797293Y-7547355D01*
X6788150Y-7538212D01*
X6915404Y-7454900D02*
G01*
X6915404Y-7551928D01*
X6883145Y-7454900D02*
G01*
X6947915Y-7454900D01*
X5156200Y-6082284D02*
G01*
X5156200Y-6191250D01*
X5190490Y-6082284D02*
G01*
X5190490Y-6191250D01*
X5190490Y-6082284D02*
G01*
X5232145Y-6191250D01*
X5273547Y-6082284D02*
G01*
X5232145Y-6191250D01*
X5273547Y-6082284D02*
G01*
X5273547Y-6191250D01*
X5307838Y-6082284D02*
G01*
X5307838Y-6160262D01*
X5313172Y-6175755D01*
X5323586Y-6186170D01*
X5339079Y-6191250D01*
X5349493Y-6191250D01*
X5364988Y-6186170D01*
X5375402Y-6175755D01*
X5380736Y-6160262D01*
X5380736Y-6082284D01*
D10*
X6908800Y-8928100D02*
G01*
X7099300Y-8928100D01*
X7099300Y-8674100D01*
X5829300Y-8674100D01*
X5829300Y-8928100D01*
D13*
X5829300Y-8928100D02*
G01*
X6908800Y-8928100D01*
D10*
X1193800Y-5816600D02*
G01*
X2717800Y-5816600D01*
X2717800Y-6324600D01*
X1193800Y-6324600D01*
X1193800Y-5816600D01*
X1651000Y-8305800D02*
G01*
X3175000Y-8305800D01*
X3175000Y-8813800D01*
X1651000Y-8813800D01*
X1651000Y-8305800D01*
X8559800Y-5588000D02*
G01*
X8559800Y-5842000D01*
X7543800Y-5842000D01*
X7543800Y-5588000D01*
X7734300Y-5588000D01*
D13*
X8559800Y-5588000D02*
G01*
X7734300Y-5588000D01*
D10*
X6299200Y-5600700D02*
G01*
X6299200Y-5854700D01*
X5283200Y-5854700D01*
X5283200Y-5600700D01*
X5473700Y-5600700D01*
D13*
X6299200Y-5600700D02*
G01*
X5473700Y-5600700D01*
D14*
X7493000Y-6922515D02*
G01*
X7429500Y-6859015D01*
X7048500Y-6859015D01*
X6985000Y-6922515D01*
X6985000Y-7049515D01*
X7048500Y-7113015D01*
X6985000Y-7176515D01*
X6985000Y-7303515D01*
X7048500Y-7367015D01*
X6985000Y-7430515D01*
X6985000Y-7557515D01*
X7048500Y-7621015D01*
X7429500Y-7621015D01*
X7493000Y-7557515D01*
X7493000Y-7430515D01*
X7429500Y-7367015D01*
X7493000Y-7303515D01*
X7493000Y-7176515D01*
X7429500Y-7113015D01*
X7493000Y-7049515D01*
X7493000Y-6922515D01*
X7048500Y-7367015D02*
G01*
X7429500Y-7367015D01*
X7048500Y-7113015D02*
G01*
X7429500Y-7113015D01*
D10*
X8318474Y-9653015D02*
G01*
X8445474Y-9653015D01*
X8508974Y-9716515D01*
X8572474Y-9653015D01*
X8699474Y-9653015D01*
X8762974Y-9716515D01*
X8826474Y-9653015D01*
X8953474Y-9653015D01*
X9016974Y-9716515D01*
X9080474Y-9653015D01*
X9207474Y-9653015D01*
X9270974Y-9716515D01*
X9334474Y-9653015D01*
X9461474Y-9653015D01*
X9524974Y-9716515D01*
X9588474Y-9653015D01*
X9715474Y-9653015D01*
X9778974Y-9716515D01*
X9842474Y-9653015D01*
X9969474Y-9653015D01*
X10032974Y-9716515D01*
X10032974Y-9843515D01*
X9969474Y-9907015D01*
X9842474Y-9907015D01*
X9778974Y-9843515D01*
X9715474Y-9907015D01*
X9588474Y-9907015D01*
X9524974Y-9843515D01*
X9461474Y-9907015D01*
X9334474Y-9907015D01*
X9270974Y-9843515D01*
X9207474Y-9907015D01*
X9080474Y-9907015D01*
X9016974Y-9843515D01*
X8953474Y-9907015D01*
X8826474Y-9907015D01*
X8762974Y-9843515D01*
X8699474Y-9907015D01*
X8572474Y-9907015D01*
X8508974Y-9843515D01*
X8445474Y-9907015D01*
X8318474Y-9907015D01*
X8254974Y-9843515D01*
X8191474Y-9907015D01*
X8064474Y-9907015D01*
X8000974Y-9843515D01*
X8000974Y-9716515D01*
X8064474Y-9653015D01*
X8191474Y-9653015D01*
X8254974Y-9716515D01*
X8318474Y-9653015D01*
X7810474Y-4827015D02*
G01*
X7937474Y-4827015D01*
X8000974Y-4890515D01*
X8064474Y-4827015D01*
X8191474Y-4827015D01*
X8254974Y-4890515D01*
X8318474Y-4827015D01*
X8445474Y-4827015D01*
X8508974Y-4890515D01*
X8572474Y-4827015D01*
X8699474Y-4827015D01*
X8762974Y-4890515D01*
X8826474Y-4827015D01*
X8953474Y-4827015D01*
X9016974Y-4890515D01*
X9080474Y-4827015D01*
X9207474Y-4827015D01*
X9270974Y-4890515D01*
X9334474Y-4827015D01*
X9461474Y-4827015D01*
X9524974Y-4890515D01*
X9524974Y-5017515D01*
X9461474Y-5081015D01*
X9334474Y-5081015D01*
X9270974Y-5017515D01*
X9207474Y-5081015D01*
X9080474Y-5081015D01*
X9016974Y-5017515D01*
X8953474Y-5081015D01*
X8826474Y-5081015D01*
X8762974Y-5017515D01*
X8699474Y-5081015D01*
X8572474Y-5081015D01*
X8508974Y-5017515D01*
X8445474Y-5081015D01*
X8318474Y-5081015D01*
X8254974Y-5017515D01*
X8191474Y-5081015D01*
X8064474Y-5081015D01*
X8000974Y-5017515D01*
X7937474Y-5081015D01*
X7810474Y-5081015D01*
X7746974Y-5017515D01*
X7683474Y-5081015D01*
X7556474Y-5081015D01*
X7492974Y-5017515D01*
X7492974Y-4890515D01*
X7556474Y-4827015D01*
X7683474Y-4827015D01*
X7746974Y-4890515D01*
X7810474Y-4827015D01*
X6032500Y-9653015D02*
G01*
X6159500Y-9653015D01*
X6223000Y-9716515D01*
X6286500Y-9653015D01*
X6413500Y-9653015D01*
X6477000Y-9716515D01*
X6540500Y-9653015D01*
X6667500Y-9653015D01*
X6731000Y-9716515D01*
X6794500Y-9653015D01*
X6921500Y-9653015D01*
X6985000Y-9716515D01*
X7048500Y-9653015D01*
X7175474Y-9653015D01*
X7238974Y-9716515D01*
X7302474Y-9653015D01*
X7429474Y-9653015D01*
X7492974Y-9716515D01*
X7556474Y-9653015D01*
X7683474Y-9653015D01*
X7746974Y-9716515D01*
X7746974Y-9843515D01*
X7683474Y-9907015D01*
X7556474Y-9907015D01*
X7492974Y-9843515D01*
X7429474Y-9907015D01*
X7302474Y-9907015D01*
X7238974Y-9843515D01*
X7175474Y-9907015D01*
X7048500Y-9907015D01*
X6985000Y-9843515D01*
X6921500Y-9907015D01*
X6794500Y-9907015D01*
X6731000Y-9843515D01*
X6667500Y-9907015D01*
X6540500Y-9907015D01*
X6477000Y-9843515D01*
X6413500Y-9907015D01*
X6286500Y-9907015D01*
X6223000Y-9843515D01*
X6159500Y-9907015D01*
X6032500Y-9907015D01*
X5969000Y-9843515D01*
X5905500Y-9907015D01*
X5778500Y-9907015D01*
X5715000Y-9843515D01*
X5715000Y-9716515D01*
X5778500Y-9653015D01*
X5905500Y-9653015D01*
X5969000Y-9716515D01*
X6032500Y-9653015D01*
X5524500Y-4827015D02*
G01*
X5651500Y-4827015D01*
X5715000Y-4890515D01*
X5778500Y-4827015D01*
X5905500Y-4827015D01*
X5969000Y-4890515D01*
X6032500Y-4827015D01*
X6159500Y-4827015D01*
X6223000Y-4890515D01*
X6286500Y-4827015D01*
X6413500Y-4827015D01*
X6477000Y-4890515D01*
X6540500Y-4827015D01*
X6667500Y-4827015D01*
X6731000Y-4890515D01*
X6794500Y-4827015D01*
X6921500Y-4827015D01*
X6985000Y-4890515D01*
X7048500Y-4827015D01*
X7175474Y-4827015D01*
X7238974Y-4890515D01*
X7238974Y-5017515D01*
X7175474Y-5081015D01*
X7048500Y-5081015D01*
X6985000Y-5017515D01*
X6921500Y-5081015D01*
X6794500Y-5081015D01*
X6731000Y-5017515D01*
X6667500Y-5081015D01*
X6540500Y-5081015D01*
X6477000Y-5017515D01*
X6413500Y-5081015D01*
X6286500Y-5081015D01*
X6223000Y-5017515D01*
X6159500Y-5081015D01*
X6032500Y-5081015D01*
X5969000Y-5017515D01*
X5905500Y-5081015D01*
X5778500Y-5081015D01*
X5715000Y-5017515D01*
X5651500Y-5081015D01*
X5524500Y-5081015D01*
X5461000Y-5017515D01*
X5397500Y-5081015D01*
X5270500Y-5081015D01*
X5207000Y-5017515D01*
X5207000Y-4890515D01*
X5270500Y-4827015D01*
X5397500Y-4827015D01*
X5461000Y-4890515D01*
X5524500Y-4827015D01*
X2768600Y-4890515D02*
G01*
X2832100Y-4827015D01*
X2959100Y-4827015D01*
X3022600Y-4890515D01*
X3086100Y-4827015D01*
X3213100Y-4827015D01*
X3276600Y-4890515D01*
X3340100Y-4827015D01*
X3467100Y-4827015D01*
X3530600Y-4890515D01*
X3594100Y-4827015D01*
X3721100Y-4827015D01*
X3784600Y-4890515D01*
X3848100Y-4827015D01*
X3975100Y-4827015D01*
X4038600Y-4890515D01*
X4102100Y-4827015D01*
X4229100Y-4827015D01*
X4292600Y-4890515D01*
X4356100Y-4827015D01*
X4483100Y-4827015D01*
X4546600Y-4890515D01*
X4610100Y-4827015D01*
X4737100Y-4827015D01*
X4800600Y-4890515D01*
X4864100Y-4827015D01*
X4991100Y-4827015D01*
X5054600Y-4890515D01*
X5054600Y-5017515D01*
X4991100Y-5081015D01*
X4864100Y-5081015D01*
X4800600Y-5017515D01*
X4737100Y-5081015D01*
X4610100Y-5081015D01*
X4546600Y-5017515D01*
X4483100Y-5081015D01*
X4356100Y-5081015D01*
X4292600Y-5017515D01*
X4229100Y-5081015D01*
X4102100Y-5081015D01*
X4038600Y-5017515D01*
X3975100Y-5081015D01*
X3848100Y-5081015D01*
X3784600Y-5017515D01*
X3721100Y-5081015D01*
X3594100Y-5081015D01*
X3530600Y-5017515D01*
X3467100Y-5081015D01*
X3340100Y-5081015D01*
X3276600Y-5017515D01*
X3213100Y-5081015D01*
X3086100Y-5081015D01*
X3022600Y-5017515D01*
X2959100Y-5081015D01*
X2832100Y-5081015D01*
X2768600Y-5017515D01*
X2705100Y-5081015D01*
X2578100Y-5081015D01*
X2514600Y-5017515D01*
X2514600Y-4890515D01*
X2578100Y-4827015D01*
X2705100Y-4827015D01*
X2768600Y-4890515D01*
D11*
X10477474Y-9145015D02*
G01*
X10540974Y-9081515D01*
X10540974Y-8954515D01*
X10477474Y-8891015D01*
X10096474Y-8891015D01*
X10032974Y-8827515D01*
X10032974Y-8700515D01*
X10096474Y-8637015D01*
X10477474Y-8637015D01*
X10540974Y-8573515D01*
X10540974Y-8446515D01*
X10477474Y-8383015D01*
X10096474Y-8383015D01*
X10032974Y-8319515D01*
X10032974Y-8192515D01*
X10096474Y-8129015D01*
X10477474Y-8129015D01*
X10540974Y-8065515D01*
X10540974Y-7938515D01*
X10477474Y-7875015D01*
X10096474Y-7875015D01*
X10032974Y-7811515D01*
X10032974Y-7684515D01*
X10096474Y-7621015D01*
X10477474Y-7621015D01*
X10540974Y-7557515D01*
X10540974Y-7430515D01*
X10477474Y-7367015D01*
X10540974Y-7303515D01*
X10540974Y-7176515D01*
X10477474Y-7113015D01*
X10540974Y-7049515D01*
X10540974Y-6922515D01*
X10477474Y-6859015D01*
X10540974Y-6795515D01*
X10540974Y-6668515D01*
X10477474Y-6605015D01*
X10540974Y-6541515D01*
X10540974Y-6414515D01*
X10477474Y-6351015D01*
X10540974Y-6287515D01*
X10540974Y-6160515D01*
X10477474Y-6097015D01*
X10540974Y-6033515D01*
X10540974Y-5906515D01*
X10477474Y-5843015D01*
X10540974Y-5779515D01*
X10540974Y-5652515D01*
X10477474Y-5589015D01*
X10540974Y-5525515D01*
X10540974Y-5398515D01*
X10477474Y-5335015D01*
X10096474Y-5335015D01*
X10032974Y-5398515D01*
X10032974Y-5525515D01*
X10096474Y-5589015D01*
X10477474Y-5589015D01*
X10477474Y-7367015D02*
G01*
X10096474Y-7367015D01*
X10032974Y-7303515D01*
X10032974Y-7176515D01*
X10096474Y-7113015D01*
X10032974Y-7049515D01*
X10032974Y-6922515D01*
X10096474Y-6859015D01*
X10032974Y-6795515D01*
X10032974Y-6668515D01*
X10096474Y-6605015D01*
X10032974Y-6541515D01*
X10032974Y-6414515D01*
X10096474Y-6351015D01*
X10032974Y-6287515D01*
X10032974Y-6160515D01*
X10096474Y-6097015D01*
X10032974Y-6033515D01*
X10032974Y-5906515D01*
X10096474Y-5843015D01*
X10032974Y-5779515D01*
X10032974Y-5652515D01*
X10096474Y-5589015D01*
X10096474Y-5335015D02*
G01*
X10032974Y-5271515D01*
X10032974Y-5144515D01*
X10096474Y-5081015D01*
X10477474Y-5081015D02*
G01*
X10540974Y-5144515D01*
X10540974Y-5271515D01*
X10477474Y-5335015D01*
X10096474Y-6859015D02*
G01*
X10477474Y-6859015D01*
X10096474Y-6605015D02*
G01*
X10477474Y-6605015D01*
X10096474Y-6351015D02*
G01*
X10477474Y-6351015D01*
X10096474Y-6097015D02*
G01*
X10477474Y-6097015D01*
X10096474Y-5843015D02*
G01*
X10477474Y-5843015D01*
X10477474Y-8891015D02*
G01*
X10540974Y-8827515D01*
X10540974Y-8700515D01*
X10477474Y-8637015D01*
X10477474Y-8383015D02*
G01*
X10540974Y-8319515D01*
X10540974Y-8192515D01*
X10477474Y-8129015D01*
X10477474Y-7875015D02*
G01*
X10540974Y-7811515D01*
X10540974Y-7684515D01*
X10477474Y-7621015D01*
X10096474Y-9145015D02*
G01*
X10032974Y-9081515D01*
X10032974Y-8954515D01*
X10096474Y-8891015D01*
X10096474Y-8637015D02*
G01*
X10032974Y-8573515D01*
X10032974Y-8446515D01*
X10096474Y-8383015D01*
X10096474Y-8129015D02*
G01*
X10032974Y-8065515D01*
X10032974Y-7938515D01*
X10096474Y-7875015D01*
X10096474Y-7621015D02*
G01*
X10032974Y-7557515D01*
X10032974Y-7430515D01*
X10096474Y-7367015D01*
X10096474Y-7113015D02*
G01*
X10477474Y-7113015D01*
D10*
X10096474Y-9399015D02*
G01*
X10032974Y-9335515D01*
X10032974Y-9208515D01*
X10096474Y-9145015D01*
X10477474Y-9145015D01*
X10540974Y-9208515D01*
X10540974Y-9335515D01*
X10477474Y-9399015D01*
X10096474Y-9399015D01*
X10096474Y-5081015D02*
G01*
X10032974Y-5017515D01*
X10032974Y-4890515D01*
X10096474Y-4827015D01*
X10477474Y-4827015D01*
X10540974Y-4890515D01*
X10540974Y-5017515D01*
X10477474Y-5081015D01*
X10096474Y-5081015D01*
D15*
X10159974Y-4819395D02*
G01*
X10159974Y-4755895D01*
X10413974Y-4755895D01*
X10413974Y-4821936D01*
X10159974Y-9406636D02*
G01*
X10159974Y-9480295D01*
X10413974Y-9480295D01*
X10413974Y-9404095D01*
X10540974Y-9399015D02*
G01*
X10840694Y-9399015D01*
D10*
X3873500Y-9653015D02*
G01*
X3937000Y-9716515D01*
X4000500Y-9653015D01*
X4127500Y-9653015D01*
X4191000Y-9716515D01*
X4254500Y-9653015D01*
X4381500Y-9653015D01*
X4445000Y-9716515D01*
X4508500Y-9653015D01*
X4635500Y-9653015D01*
X4699000Y-9716515D01*
X4762500Y-9653015D01*
X4889500Y-9653015D01*
X4953000Y-9716515D01*
X5016500Y-9653015D01*
X5143500Y-9653015D01*
X5207000Y-9716515D01*
X5270500Y-9653015D01*
X5397500Y-9653015D01*
X5461000Y-9716515D01*
X5461000Y-9843515D01*
X5397500Y-9907015D01*
X5270500Y-9907015D01*
X5207000Y-9843515D01*
X5143500Y-9907015D01*
X5016500Y-9907015D01*
X4953000Y-9843515D01*
X4889500Y-9907015D01*
X4762500Y-9907015D01*
X4699000Y-9843515D01*
X4635500Y-9907015D01*
X4508500Y-9907015D01*
X4445000Y-9843515D01*
X4381500Y-9907015D01*
X4254500Y-9907015D01*
X4191000Y-9843515D01*
X4127500Y-9907015D01*
X4000500Y-9907015D01*
X3937000Y-9843515D01*
X3873500Y-9907015D01*
X3746500Y-9907015D01*
X3683000Y-9843515D01*
X3619500Y-9907015D01*
X3492500Y-9907015D01*
X3429000Y-9843515D01*
X3429000Y-9716515D01*
X3492500Y-9653015D01*
X3619500Y-9653015D01*
X3683000Y-9716515D01*
X3746500Y-9653015D01*
X3873500Y-9653015D01*
D15*
X10083774Y-4755895D02*
G01*
X10159974Y-4755895D01*
D14*
X4800600Y-6464300D02*
G01*
X5943600Y-6464300D01*
X5943600Y-8242300D01*
X4800600Y-8242300D01*
X4800600Y-6464300D01*
X4292600Y-6464300D02*
G01*
X4800600Y-6464300D01*
X4800600Y-8242300D01*
X4292600Y-8242300D01*
X4292600Y-6464300D01*
D10*
X8661400Y-6248400D02*
G01*
X8661400Y-6438900D01*
X8661400Y-8788400D01*
X8153400Y-8788400D01*
X8153400Y-6438900D01*
X8153400Y-6248400D01*
X8661400Y-6248400D01*
D14*
G75*
G01
X6997700Y-6833616D02*
G03X6997700Y-6833616I-25400J0D01*
M02*
