G04 Layer: BottomSolderMaskLayer*
G04 EasyEDA v6.5.46, 2025-01-09 23:37:49*
G04 bbed458f42434569bcf49ab9fb7bc22b,fff7059aa45948518e6d809cb9695f37,10*
G04 Gerber Generator version 0.2*
G04 Scale: 100 percent, Rotated: No, Reflected: No *
G04 Dimensions in millimeters *
G04 leading zeros omitted , absolute positions ,4 integer and 5 decimal *
%FSLAX45Y45*%
%MOMM*%

%AMMACRO1*4,1,8,-1.0211,-1.0508,-1.0508,-1.021,-1.0508,1.0211,-1.0211,1.0508,1.021,1.0508,1.0508,1.0211,1.0508,-1.021,1.021,-1.0508,-1.0211,-1.0508,0*%
%AMMACRO2*4,1,8,-0.9819,-1.0414,-1.0414,-0.9819,-1.0414,0.9819,-0.9819,1.0414,0.9819,1.0414,1.0414,0.9819,1.0414,-0.9819,0.9819,-1.0414,-0.9819,-1.0414,0*%
%ADD10C,2.1016*%
%ADD11MACRO1*%
%ADD12C,1.8796*%
%ADD13MACRO2*%
%ADD14C,2.2032*%

%LPD*%
D10*
G01*
X5956300Y-8801100D03*
G01*
X6210300Y-8801100D03*
G01*
X6464300Y-8801100D03*
G01*
X6718300Y-8801100D03*
D11*
G01*
X6972300Y-8801100D03*
D10*
G01*
X2590800Y-5943600D03*
G01*
X2590800Y-6197600D03*
G01*
X2336800Y-5943600D03*
G01*
X2336800Y-6197600D03*
G01*
X2082800Y-5943600D03*
G01*
X2082800Y-6197600D03*
G01*
X1828800Y-5943600D03*
G01*
X1828800Y-6197600D03*
G01*
X1574800Y-5943600D03*
G01*
X1574800Y-6197600D03*
G01*
X1320800Y-5943600D03*
D11*
G01*
X1320800Y-6197600D03*
D10*
G01*
X3048000Y-8432800D03*
G01*
X3048000Y-8686800D03*
G01*
X2794000Y-8432800D03*
G01*
X2794000Y-8686800D03*
G01*
X2540000Y-8432800D03*
G01*
X2540000Y-8686800D03*
G01*
X2286000Y-8432800D03*
G01*
X2286000Y-8686800D03*
G01*
X2032000Y-8432800D03*
G01*
X2032000Y-8686800D03*
G01*
X1778000Y-8432800D03*
D11*
G01*
X1778000Y-8686800D03*
G01*
X7670800Y-5715000D03*
D10*
G01*
X7924800Y-5715000D03*
G01*
X8178800Y-5715000D03*
G01*
X8432800Y-5715000D03*
D11*
G01*
X5410200Y-5727700D03*
D10*
G01*
X5664200Y-5727700D03*
G01*
X5918200Y-5727700D03*
G01*
X6172200Y-5727700D03*
G36*
X10379963Y-8343239D02*
G01*
X10379395Y-8343206D01*
X10378833Y-8343112D01*
X10378285Y-8342955D01*
X10377759Y-8342736D01*
X10377261Y-8342459D01*
X10376796Y-8342132D01*
X10376372Y-8341751D01*
X10328264Y-8293643D01*
X10327883Y-8293219D01*
X10327556Y-8292754D01*
X10327279Y-8292256D01*
X10327060Y-8291730D01*
X10326903Y-8291182D01*
X10326809Y-8290620D01*
X10326776Y-8290052D01*
X10326776Y-8222005D01*
X10326809Y-8221436D01*
X10326903Y-8220875D01*
X10327060Y-8220326D01*
X10327279Y-8219800D01*
X10327556Y-8219302D01*
X10327883Y-8218838D01*
X10328264Y-8218413D01*
X10376372Y-8170306D01*
X10376796Y-8169925D01*
X10377261Y-8169597D01*
X10377759Y-8169320D01*
X10378285Y-8169102D01*
X10378833Y-8168944D01*
X10379395Y-8168850D01*
X10379963Y-8168817D01*
X10448010Y-8168817D01*
X10448579Y-8168850D01*
X10449140Y-8168944D01*
X10449689Y-8169102D01*
X10450215Y-8169320D01*
X10450713Y-8169597D01*
X10451177Y-8169925D01*
X10451602Y-8170306D01*
X10499709Y-8218413D01*
X10500090Y-8218838D01*
X10500418Y-8219302D01*
X10500695Y-8219800D01*
X10500913Y-8220326D01*
X10501071Y-8220875D01*
X10501165Y-8221436D01*
X10501198Y-8222005D01*
X10501198Y-8290052D01*
X10501165Y-8290620D01*
X10501071Y-8291182D01*
X10500913Y-8291730D01*
X10500695Y-8292256D01*
X10500418Y-8292754D01*
X10500090Y-8293219D01*
X10499709Y-8293643D01*
X10451602Y-8341751D01*
X10451177Y-8342132D01*
X10450713Y-8342459D01*
X10450215Y-8342736D01*
X10449689Y-8342955D01*
X10449140Y-8343112D01*
X10448579Y-8343206D01*
X10448010Y-8343239D01*
G37*
D12*
G01*
X8381974Y-9780015D03*
G01*
X8635974Y-9780015D03*
G01*
X8889974Y-9780015D03*
G01*
X9143974Y-9780015D03*
G01*
X9397974Y-9780015D03*
G01*
X9651974Y-9780015D03*
G01*
X9905974Y-9780015D03*
G01*
X8127974Y-9780015D03*
D10*
G01*
X7873974Y-4954015D03*
G01*
X8127974Y-4954015D03*
G01*
X8381974Y-4954015D03*
G01*
X8635974Y-4954015D03*
G01*
X8889974Y-4954015D03*
G01*
X9143974Y-4954015D03*
G01*
X9397974Y-4954015D03*
G01*
X7619974Y-4954015D03*
D12*
G01*
X6096000Y-9780015D03*
G01*
X6350000Y-9780015D03*
G01*
X6604000Y-9780015D03*
G01*
X6858000Y-9780015D03*
G01*
X7112000Y-9780015D03*
G01*
X7365974Y-9780015D03*
G01*
X7619974Y-9780015D03*
G01*
X5842000Y-9780015D03*
D10*
G01*
X5588000Y-4954015D03*
G01*
X5842000Y-4954015D03*
G01*
X6096000Y-4954015D03*
G01*
X6350000Y-4954015D03*
G01*
X6604000Y-4954015D03*
G01*
X6858000Y-4954015D03*
G01*
X7112000Y-4954015D03*
G01*
X5334000Y-4954015D03*
G01*
X3403600Y-4954015D03*
G01*
X3657600Y-4954015D03*
G01*
X3911600Y-4954015D03*
G01*
X4165600Y-4954015D03*
G01*
X4419600Y-4954015D03*
G01*
X4673600Y-4954015D03*
G01*
X4927600Y-4954015D03*
G01*
X3149600Y-4954015D03*
G01*
X10413974Y-6986015D03*
G01*
X10159974Y-6986015D03*
G01*
X10413974Y-6732015D03*
G01*
X10159974Y-6732015D03*
G01*
X10413974Y-6478015D03*
G01*
X10159974Y-6478015D03*
G01*
X10413974Y-6224015D03*
G01*
X10159974Y-6224015D03*
G01*
X10413974Y-5970015D03*
G01*
X10159974Y-5970015D03*
G01*
X10413974Y-5716015D03*
G01*
X10159974Y-5716015D03*
G01*
X10413974Y-5462015D03*
G01*
X10159974Y-5462015D03*
G01*
X10413974Y-5208015D03*
G01*
X10159974Y-5208015D03*
G01*
X10413974Y-9018015D03*
G01*
X10159974Y-9018015D03*
G01*
X10413974Y-8764015D03*
G01*
X10159974Y-8764015D03*
G01*
X10413974Y-8510015D03*
G01*
X10159974Y-8510015D03*
G01*
X10159974Y-8256015D03*
G01*
X10413974Y-8002015D03*
G01*
X10159974Y-8002015D03*
G01*
X10413974Y-7748015D03*
G01*
X10159974Y-7748015D03*
G01*
X10413974Y-7494015D03*
G01*
X10159974Y-7494015D03*
G01*
X10413974Y-7240015D03*
G01*
X10159974Y-7240015D03*
G01*
X10159974Y-9272015D03*
G01*
X10413974Y-9272015D03*
G01*
X10159974Y-4954015D03*
G01*
X10413974Y-4954015D03*
D12*
G01*
X4064000Y-9780015D03*
G01*
X4318000Y-9780015D03*
G01*
X4572000Y-9780015D03*
G01*
X4826000Y-9780015D03*
G01*
X5080000Y-9780015D03*
G01*
X5334000Y-9780015D03*
D10*
G01*
X2895600Y-4954015D03*
G01*
X2641600Y-4954015D03*
D12*
G01*
X3810000Y-9780015D03*
G01*
X3556000Y-9780015D03*
D13*
G01*
X7112000Y-6986015D03*
G01*
X7366000Y-6986015D03*
G01*
X7112000Y-7240015D03*
G01*
X7366000Y-7240015D03*
G01*
X7112000Y-7494015D03*
G01*
X7366000Y-7494015D03*
D14*
G01*
X4927600Y-7353300D03*
G01*
X4927600Y-7099300D03*
G01*
X4927600Y-7607300D03*
G01*
X4927600Y-6591300D03*
G01*
X5181600Y-6591300D03*
G01*
X5435600Y-6591300D03*
G01*
X5689600Y-6591300D03*
G01*
X4927600Y-8115300D03*
G01*
X5181600Y-8115300D03*
G01*
X5435600Y-8115300D03*
G01*
X5689600Y-8115300D03*
D10*
G01*
X8534400Y-8661400D03*
G01*
X8280400Y-8661400D03*
G01*
X8534400Y-8407400D03*
G01*
X8280400Y-8407400D03*
G01*
X8534400Y-8153400D03*
G01*
X8280400Y-8153400D03*
G01*
X8534400Y-7899400D03*
G01*
X8280400Y-7899400D03*
G01*
X8534400Y-7645400D03*
G01*
X8280400Y-7645400D03*
G01*
X8534400Y-7391400D03*
G01*
X8280400Y-7391400D03*
G01*
X8534400Y-7137400D03*
G01*
X8280400Y-7137400D03*
G01*
X8534400Y-6883400D03*
G01*
X8280400Y-6883400D03*
G01*
X8534400Y-6629400D03*
G01*
X8280400Y-6629400D03*
G01*
X8534400Y-6375400D03*
D11*
G01*
X8280400Y-6375400D03*
D10*
G01*
X10413974Y-8256015D03*
M02*
